  0
SECTION
  2
HEADER
  9
$ACADVER
  1
AC1014
  9
$HANDSEED
  5
FFFF
  9
$MEASUREMENT
 70
     1
  0
ENDSEC
  0
SECTION
  2
TABLES
  0
TABLE
  2
VPORT
  5
8
330
0
100
AcDbSymbolTable
 70
     4
  0
VPORT
  5
2E
330
8
100
AcDbSymbolTableRecord
100
AcDbViewportTableRecord
  2
*ACTIVE
 70
     0
 10
0.0
 20
0.0
 11
1.0
 21
1.0
 12
210.0
 22
148.5
 13
0.0
 23
0.0
 14
10.0
 24
10.0
 15
10.0
 25
10.0
 16
0.0
 26
0.0
 36
1.0
 17
0.0
 27
0.0
 37
0.0
 40
341.0
 41
1.24
 42
50.0
 43
0.0
 44
0.0
 50
0.0
 51
0.0
 71
     0
 72
   100
 73
     1
 74
     3
 75
     0
 76
     0
 77
     0
 78
     0
  0
ENDTAB
  0
TABLE
  2
LTYPE
  5
5
330
0
100
AcDbSymbolTable
 70
     1
  0
LTYPE
  5
14
330
5
100
AcDbSymbolTableRecord
100
AcDbLinetypeTableRecord
  2
BYBLOCK
 70
     0
  3

 72
    65
 73
     0
 40
0.0
  0
LTYPE
  5
15
330
5
100
AcDbSymbolTableRecord
100
AcDbLinetypeTableRecord
  2
BYLAYER
 70
     0
  3

 72
    65
 73
     0
 40
0.0
  0
LTYPE
  5
16
330
5
100
AcDbSymbolTableRecord
100
AcDbLinetypeTableRecord
  2
CONTINUOUS
 70
     0
  3
Solid line
 72
    65
 73
     0
 40
0.0
  0
ENDTAB
  0
TABLE
  2
LAYER
  5
2
100
AcDbSymbolTable
 70
2
  0
LAYER
  5
50
100
AcDbSymbolTableRecord
100
AcDbLayerTableRecord
  2
0
 70
0
  6
CONTINUOUS
  0
LAYER
  5
51
100
AcDbSymbolTableRecord
100
AcDbLayerTableRecord
  2
Layer_1
 70
0
  6
CONTINUOUS
  0
ENDTAB
  0
TABLE
  2
STYLE
  5
3
330
0
100
AcDbSymbolTable
 70
     1
  0
STYLE
  5
11
330
3
100
AcDbSymbolTableRecord
100
AcDbTextStyleTableRecord
  2
STANDARD
 70
     0
 40
0.0
 41
1.0
 50
0.0
 71
     0
 42
2.5
  3
txt
  4

  0
ENDTAB
  0
TABLE
  2
VIEW
  5
6
330
0
100
AcDbSymbolTable
 70
     0
  0
ENDTAB
  0
TABLE
  2
UCS
  5
7
330
0
100
AcDbSymbolTable
 70
     0
  0
ENDTAB
  0
TABLE
  2
APPID
  5
9
330
0
100
AcDbSymbolTable
 70
     2
  0
APPID
  5
12
330
9
100
AcDbSymbolTableRecord
100
AcDbRegAppTableRecord
  2
ACAD
 70
     0
  0
ENDTAB
  0
TABLE
  2
DIMSTYLE
  5
A
330
0
100
AcDbSymbolTable
 70
     1
  0
DIMSTYLE
105
27
330
A
100
AcDbSymbolTableRecord
100
AcDbDimStyleTableRecord
  2
ISO-25
 70
     0
  3

  4

  5

  6

  7

 40
1.0
 41
2.5
 42
0.625
 43
3.75
 44
1.25
 45
0.0
 46
0.0
 47
0.0
 48
0.0
140
2.5
141
2.5
142
0.0
143
0.03937007874016
144
1.0
145
0.0
146
1.0
147
0.625
 71
     0
 72
     0
 73
     0
 74
     0
 75
     0
 76
     0
 77
     1
 78
     8
170
     0
171
     3
172
     1
173
     0
174
     0
175
     0
176
     0
177
     0
178
     0
270
     2
271
     2
272
     2
273
     2
274
     3
340
11
275
     0
280
     0
281
     0
282
     0
283
     0
284
     8
285
     0
286
     0
287
     3
288
     0
  0
ENDTAB
  0
TABLE
  2
BLOCK_RECORD
  5
1
330
0
100
AcDbSymbolTable
 70
     1
  0
BLOCK_RECORD
  5
1F
330
1
100
AcDbSymbolTableRecord
100
AcDbBlockTableRecord
  2
*MODEL_SPACE
  0
BLOCK_RECORD
  5
1B
330
1
100
AcDbSymbolTableRecord
100
AcDbBlockTableRecord
  2
*PAPER_SPACE
  0
ENDTAB
  0
ENDSEC
  0
SECTION
  2
BLOCKS
  0
BLOCK
  5
20
330
1F
100
AcDbEntity
  8
0
100
AcDbBlockBegin
  2
*MODEL_SPACE
 70
     0
 10
0.0
 20
0.0
 30
0.0
  3
*MODEL_SPACE
  1

  0
ENDBLK
  5
21
330
1F
100
AcDbEntity
  8
0
100
AcDbBlockEnd
  0
BLOCK
  5
1C
330
1B
100
AcDbEntity
 67
     1
  8
0
100
AcDbBlockBegin
  2
*PAPER_SPACE
  1

  0
ENDBLK
  5
1D
330
1B
100
AcDbEntity
 67
     1
  8
0
100
AcDbBlockEnd
  0
ENDSEC
  0
SECTION
  2
ENTITIES
  0
SPLINE
  5
100
100
AcDbEntity
  8
Layer_1
 62
7
100
AcDbSpline
 70
8
 71
3
 72
8
 73
4
 74
0
 40
0
 40
0
 40
0
 40
0
 40
1
 40
1
 40
1
 40
1
 10
176.258347
 20
240.058488
 30
0.0
 10
136.335212
 20
252.769748
 30
0.0
 10
106.331332
 20
302.852636
 30
0.0
 10
101.857751
 20
364.248964
 30
0.0
  0
SPLINE
  5
101
100
AcDbEntity
  8
Layer_1
 62
7
100
AcDbSpline
 70
8
 71
3
 72
8
 73
4
 74
0
 40
0
 40
0
 40
0
 40
0
 40
1
 40
1
 40
1
 40
1
 10
96.992711
 20
368.464904
 30
0.0
 10
91.673059
 20
367.939616
 30
0.0
 10
82.127611
 20
369.182239
 30
0.0
 10
75.168215
 20
371.305984
 30
0.0
  0
SPLINE
  5
102
100
AcDbEntity
  8
Layer_1
 62
7
100
AcDbSpline
 70
8
 71
3
 72
8
 73
4
 74
0
 40
0
 40
0
 40
0
 40
0
 40
1
 40
1
 40
1
 40
1
 10
75.168215
 20
371.305984
 30
0.0
 10
38.904534
 20
382.372271
 30
0.0
 10
10.189365
 20
425.117509
 30
0.0
 10
2.056866
 20
480.139115
 30
0.0
  0
SPLINE
  5
103
100
AcDbEntity
  8
Layer_1
 62
7
100
AcDbSpline
 70
8
 71
3
 72
8
 73
4
 74
0
 40
0
 40
0
 40
0
 40
0
 40
1
 40
1
 40
1
 40
1
 10
2.056866
 20
480.139115
 30
0.0
 10
1.127483
 20
486.426983
 30
0.0
 10
0.799457
 20
490.674586
 30
0.0
 10
0.847321
 20
495.801496
 30
0.0
  0
LWPOLYLINE
  5
104
100
AcDbEntity
  8
Layer_1
 62
7
100
AcDbPolyline
 90
3
 70
0
 10
101.857751
 20
364.248964
 30
0.0
 10
101.518007
 20
368.911729
 30
0.0
 10
96.992711
 20
368.464904
 30
0.0
  0
SPLINE
  5
105
100
AcDbEntity
  8
Layer_1
 62
7
100
AcDbSpline
 70
8
 71
3
 72
8
 73
4
 74
0
 40
0
 40
0
 40
0
 40
0
 40
1
 40
1
 40
1
 40
1
 10
1.346624
 20
496.541537
 30
0.0
 10
3.125979
 20
470.711424
 30
0.0
 10
10.028776
 20
445.005723
 30
0.0
 10
20.803175
 20
424.086208
 30
0.0
  0
SPLINE
  5
106
100
AcDbEntity
  8
Layer_1
 62
7
100
AcDbSpline
 70
8
 71
3
 72
8
 73
4
 74
0
 40
0
 40
0
 40
0
 40
0
 40
1
 40
1
 40
1
 40
1
 10
20.803175
 20
424.086208
 30
0.0
 10
24.134648
 20
417.617830
 30
0.0
 10
31.486224
 20
406.337641
 30
0.0
 10
35.874320
 20
400.961197
 30
0.0
  0
SPLINE
  5
107
100
AcDbEntity
  8
Layer_1
 62
7
100
AcDbSpline
 70
8
 71
3
 72
8
 73
4
 74
0
 40
0
 40
0
 40
0
 40
0
 40
1
 40
1
 40
1
 40
1
 10
35.874320
 20
400.961197
 30
0.0
 10
46.792604
 20
387.583682
 30
0.0
 10
62.071121
 20
376.870309
 30
0.0
 10
76.081666
 20
372.767613
 30
0.0
  0
SPLINE
  5
108
100
AcDbEntity
  8
Layer_1
 62
7
100
AcDbSpline
 70
8
 71
3
 72
8
 73
4
 74
0
 40
0
 40
0
 40
0
 40
0
 40
1
 40
1
 40
1
 40
1
 10
76.081666
 20
372.767613
 30
0.0
 10
81.431073
 20
371.201159
 30
0.0
 10
92.513951
 20
369.858132
 30
0.0
 10
98.869816
 20
370.006157
 30
0.0
  0
LWPOLYLINE
  5
109
100
AcDbEntity
  8
Layer_1
 62
7
100
AcDbPolyline
 90
3
 70
0
 10
0.847321
 20
495.801496
 30
0.0
 10
0.913003
 20
502.836180
 30
0.0
 10
1.346624
 20
496.541537
 30
0.0
  0
SPLINE
  5
10a
100
AcDbEntity
  8
Layer_1
 62
7
100
AcDbSpline
 70
8
 71
3
 72
8
 73
4
 74
0
 40
0
 40
0
 40
0
 40
0
 40
1
 40
1
 40
1
 40
1
 10
102.927453
 20
362.586104
 30
0.0
 10
108.221335
 20
298.632586
 30
0.0
 10
141.051311
 20
248.345348
 30
0.0
 10
183.164672
 20
239.682898
 30
0.0
  0
LWPOLYLINE
  5
10b
100
AcDbEntity
  8
Layer_1
 62
7
100
AcDbPolyline
 90
3
 70
0
 10
98.869816
 20
370.006157
 30
0.0
 10
102.306628
 20
370.086094
 30
0.0
 10
102.927453
 20
362.586104
 30
0.0
  0
SPLINE
  5
10c
100
AcDbEntity
  8
Layer_1
 62
7
100
AcDbSpline
 70
8
 71
3
 72
8
 73
4
 74
0
 40
0
 40
0
 40
0
 40
0
 40
1
 40
1
 40
1
 40
1
 10
184.647461
 20
238.592721
 30
0.0
 10
182.608628
 20
238.578548
 30
0.0
 10
178.833526
 20
239.239672
 30
0.0
 10
176.258353
 20
240.059594
 30
0.0
  0
LWPOLYLINE
  5
10d
100
AcDbEntity
  8
Layer_1
 62
7
100
AcDbPolyline
 90
3
 70
0
 10
183.164672
 20
239.682898
 30
0.0
 10
188.354432
 20
238.615398
 30
0.0
 10
184.647461
 20
238.592721
 30
0.0
  0
SPLINE
  5
10e
100
AcDbEntity
  8
Layer_1
 62
7
100
AcDbSpline
 70
8
 71
3
 72
8
 73
4
 74
0
 40
0
 40
0
 40
0
 40
0
 40
1
 40
1
 40
1
 40
1
 10
206.147897
 20
239.335313
 30
0.0
 10
221.821296
 20
242.022331
 30
0.0
 10
238.329729
 20
252.069817
 30
0.0
 10
251.366820
 20
266.856775
 30
0.0
  0
SPLINE
  5
10f
100
AcDbEntity
  8
Layer_1
 62
7
100
AcDbSpline
 70
8
 71
3
 72
8
 73
4
 74
0
 40
0
 40
0
 40
0
 40
0
 40
1
 40
1
 40
1
 40
1
 10
251.366820
 20
266.856775
 30
0.0
 10
256.148470
 20
272.280189
 30
0.0
 10
264.002871
 20
283.784882
 30
0.0
 10
267.823261
 20
290.961213
 30
0.0
  0
SPLINE
  5
110
100
AcDbEntity
  8
Layer_1
 62
7
100
AcDbSpline
 70
8
 71
3
 72
8
 73
4
 74
0
 40
0
 40
0
 40
0
 40
0
 40
1
 40
1
 40
1
 40
1
 10
267.823261
 20
290.961213
 30
0.0
 10
278.253502
 20
310.553631
 30
0.0
 10
285.884135
 20
337.353307
 30
0.0
 10
287.683030
 20
360.711213
 30
0.0
  0
SPLINE
  5
111
100
AcDbEntity
  8
Layer_1
 62
7
100
AcDbSpline
 70
8
 71
3
 72
8
 73
4
 74
0
 40
0
 40
0
 40
0
 40
0
 40
1
 40
1
 40
1
 40
1
 10
287.683030
 20
360.711213
 30
0.0
 10
287.857644
 20
362.979950
 30
0.0
 10
288.113953
 20
365.737436
 30
0.0
 10
288.252340
 20
366.838923
 30
0.0
  0
SPLINE
  5
112
100
AcDbEntity
  8
Layer_1
 62
7
100
AcDbSpline
 70
8
 71
3
 72
8
 73
4
 74
0
 40
0
 40
0
 40
0
 40
0
 40
1
 40
1
 40
1
 40
1
 10
288.252340
 20
366.838923
 30
0.0
 10
288.496120
 20
368.780428
 30
0.0
 10
288.415899
 20
368.857502
 30
0.0
 10
285.631285
 20
369.359490
 30
0.0
  0
SPLINE
  5
113
100
AcDbEntity
  8
Layer_1
 62
7
100
AcDbSpline
 70
8
 71
3
 72
8
 73
4
 74
0
 40
0
 40
0
 40
0
 40
0
 40
1
 40
1
 40
1
 40
1
 10
285.631285
 20
369.359490
 30
0.0
 10
284.051339
 20
369.644315
 30
0.0
 10
280.676795
 20
370.514948
 30
0.0
 10
278.132301
 20
371.294277
 30
0.0
  0
SPLINE
  5
114
100
AcDbEntity
  8
Layer_1
 62
7
100
AcDbSpline
 70
8
 71
3
 72
8
 73
4
 74
0
 40
0
 40
0
 40
0
 40
0
 40
1
 40
1
 40
1
 40
1
 10
278.132301
 20
371.294277
 30
0.0
 10
275.587826
 20
372.073578
 30
0.0
 10
273.340675
 20
372.711203
 30
0.0
 10
273.138642
 20
372.711203
 30
0.0
  0
SPLINE
  5
115
100
AcDbEntity
  8
Layer_1
 62
7
100
AcDbSpline
 70
8
 71
3
 72
8
 73
4
 74
0
 40
0
 40
0
 40
0
 40
0
 40
1
 40
1
 40
1
 40
1
 10
273.138642
 20
372.711203
 30
0.0
 10
272.936616
 20
372.711203
 30
0.0
 10
272.630934
 20
370.191146
 30
0.0
 10
272.459353
 20
367.111077
 30
0.0
  0
SPLINE
  5
116
100
AcDbEntity
  8
Layer_1
 62
7
100
AcDbSpline
 70
8
 71
3
 72
8
 73
4
 74
0
 40
0
 40
0
 40
0
 40
0
 40
1
 40
1
 40
1
 40
1
 10
272.459353
 20
367.111077
 30
0.0
 10
270.913309
 20
339.358280
 30
0.0
 10
261.095014
 20
310.569222
 30
0.0
 10
246.633233
 20
291.384028
 30
0.0
  0
SPLINE
  5
117
100
AcDbEntity
  8
Layer_1
 62
7
100
AcDbSpline
 70
8
 71
3
 72
8
 73
4
 74
0
 40
0
 40
0
 40
0
 40
0
 40
1
 40
1
 40
1
 40
1
 10
246.633233
 20
291.384028
 30
0.0
 10
235.195594
 20
276.210737
 30
0.0
 10
221.553303
 20
266.664671
 30
0.0
 10
206.395024
 20
263.227720
 30
0.0
  0
SPLINE
  5
118
100
AcDbEntity
  8
Layer_1
 62
7
100
AcDbSpline
 70
8
 71
3
 72
8
 73
4
 74
0
 40
0
 40
0
 40
0
 40
0
 40
1
 40
1
 40
1
 40
1
 10
206.395024
 20
263.227720
 30
0.0
 10
201.564581
 20
262.132469
 30
0.0
 10
189.899297
 20
262.120082
 30
0.0
 10
184.679093
 20
263.205043
 30
0.0
  0
SPLINE
  5
119
100
AcDbEntity
  8
Layer_1
 62
7
100
AcDbSpline
 70
8
 71
3
 72
8
 73
4
 74
0
 40
0
 40
0
 40
0
 40
0
 40
1
 40
1
 40
1
 40
1
 10
184.679093
 20
263.205043
 30
0.0
 10
153.958048
 20
269.587729
 30
0.0
 10
127.891877
 20
304.658901
 30
0.0
 10
120.396087
 20
349.695723
 30
0.0
  0
SPLINE
  5
11a
100
AcDbEntity
  8
Layer_1
 62
7
100
AcDbSpline
 70
8
 71
3
 72
8
 73
4
 74
0
 40
0
 40
0
 40
0
 40
0
 40
1
 40
1
 40
1
 40
1
 10
120.396087
 20
349.695723
 30
0.0
 10
118.671797
 20
360.055729
 30
0.0
 10
117.541650
 20
373.184532
 30
0.0
 10
118.277952
 20
374.301808
 30
0.0
  0
SPLINE
  5
11b
100
AcDbEntity
  8
Layer_1
 62
7
100
AcDbSpline
 70
8
 71
3
 72
8
 73
4
 74
0
 40
0
 40
0
 40
0
 40
0
 40
1
 40
1
 40
1
 40
1
 10
118.277952
 20
374.301808
 30
0.0
 10
118.560538
 20
374.730605
 30
0.0
 10
121.098249
 20
376.254964
 30
0.0
 10
123.917309
 20
377.689294
 30
0.0
  0
SPLINE
  5
11c
100
AcDbEntity
  8
Layer_1
 62
7
100
AcDbSpline
 70
8
 71
3
 72
8
 73
4
 74
0
 40
0
 40
0
 40
0
 40
0
 40
1
 40
1
 40
1
 40
1
 10
123.917309
 20
377.689294
 30
0.0
 10
146.931684
 20
389.398961
 30
0.0
 10
166.989093
 20
416.215843
 30
0.0
 10
177.692148
 20
449.586595
 30
0.0
  0
SPLINE
  5
11d
100
AcDbEntity
  8
Layer_1
 62
7
100
AcDbSpline
 70
8
 71
3
 72
8
 73
4
 74
0
 40
0
 40
0
 40
0
 40
0
 40
1
 40
1
 40
1
 40
1
 10
177.692148
 20
449.586595
 30
0.0
 10
181.758688
 20
462.265540
 30
0.0
 10
184.877600
 20
477.540652
 30
0.0
 10
186.152967
 20
491.024098
 30
0.0
  0
LWPOLYLINE
  5
11e
100
AcDbEntity
  8
Layer_1
 62
7
100
AcDbPolyline
 90
2
 70
0
 10
176.258353
 20
240.059594
 30
0.0
 10
176.258347
 20
240.058488
 30
0.0
  0
SPLINE
  5
11f
100
AcDbEntity
  8
Layer_1
 62
7
100
AcDbSpline
 70
8
 71
3
 72
8
 73
4
 74
0
 40
0
 40
0
 40
0
 40
0
 40
1
 40
1
 40
1
 40
1
 10
193.971750
 20
497.205921
 30
0.0
 10
206.936246
 20
497.194583
 30
0.0
 10
215.366837
 20
494.800328
 30
0.0
 10
225.316607
 20
488.303008
 30
0.0
  0
SPLINE
  5
120
100
AcDbEntity
  8
Layer_1
 62
7
100
AcDbSpline
 70
8
 71
3
 72
8
 73
4
 74
0
 40
0
 40
0
 40
0
 40
0
 40
1
 40
1
 40
1
 40
1
 10
225.316607
 20
488.303008
 30
0.0
 10
248.229938
 20
473.340331
 30
0.0
 10
264.976960
 20
443.774381
 30
0.0
 10
270.668347
 20
408.237052
 30
0.0
  0
LWPOLYLINE
  5
121
100
AcDbEntity
  8
Layer_1
 62
7
100
AcDbPolyline
 90
3
 70
0
 10
186.152967
 20
491.024098
 30
0.0
 10
186.738228
 20
497.211591
 30
0.0
 10
193.971750
 20
497.205921
 30
0.0
  0
SPLINE
  5
122
100
AcDbEntity
  8
Layer_1
 62
7
100
AcDbSpline
 70
8
 71
3
 72
8
 73
4
 74
0
 40
0
 40
0
 40
0
 40
0
 40
1
 40
1
 40
1
 40
1
 10
275.284973
 20
399.852255
 30
0.0
 10
279.104505
 20
398.186561
 30
0.0
 10
285.935074
 20
395.961987
 30
0.0
 10
287.229628
 20
395.961987
 30
0.0
  0
SPLINE
  5
123
100
AcDbEntity
  8
Layer_1
 62
7
100
AcDbSpline
 70
8
 71
3
 72
8
 73
4
 74
0
 40
0
 40
0
 40
0
 40
0
 40
1
 40
1
 40
1
 40
1
 10
287.229628
 20
395.961987
 30
0.0
 10
288.141647
 20
395.961987
 30
0.0
 10
288.072964
 20
397.115915
 30
0.0
 10
286.434482
 20
409.322239
 30
0.0
  0
SPLINE
  5
124
100
AcDbEntity
  8
Layer_1
 62
7
100
AcDbSpline
 70
8
 71
3
 72
8
 73
4
 74
0
 40
0
 40
0
 40
0
 40
0
 40
1
 40
1
 40
1
 40
1
 10
286.434482
 20
409.322239
 30
0.0
 10
282.804333
 20
436.365978
 30
0.0
 10
272.225693
 20
464.501594
 30
0.0
 10
258.504866
 20
483.605603
 30
0.0
  0
SPLINE
  5
125
100
AcDbEntity
  8
Layer_1
 62
7
100
AcDbSpline
 70
8
 71
3
 72
8
 73
4
 74
0
 40
0
 40
0
 40
0
 40
0
 40
1
 40
1
 40
1
 40
1
 10
258.504866
 20
483.605603
 30
0.0
 10
248.890156
 20
496.992047
 30
0.0
 10
236.638743
 20
507.906539
 30
0.0
 10
224.435619
 20
513.956608
 30
0.0
  0
SPLINE
  5
126
100
AcDbEntity
  8
Layer_1
 62
7
100
AcDbSpline
 70
8
 71
3
 72
8
 73
4
 74
0
 40
0
 40
0
 40
0
 40
0
 40
1
 40
1
 40
1
 40
1
 10
224.435619
 20
513.956608
 30
0.0
 10
215.392243
 20
518.440139
 30
0.0
 10
200.182649
 20
521.731928
 30
0.0
 10
192.003559
 20
520.975814
 30
0.0
  0
SPLINE
  5
127
100
AcDbEntity
  8
Layer_1
 62
7
100
AcDbSpline
 70
8
 71
3
 72
8
 73
4
 74
0
 40
0
 40
0
 40
0
 40
0
 40
1
 40
1
 40
1
 40
1
 10
192.003559
 20
520.975814
 30
0.0
 10
186.367476
 20
520.454778
 30
0.0
 10
187.067358
 20
519.276643
 30
0.0
 10
186.109041
 20
530.898208
 30
0.0
  0
SPLINE
  5
128
100
AcDbEntity
  8
Layer_1
 62
7
100
AcDbSpline
 70
8
 71
3
 72
8
 73
4
 74
0
 40
0
 40
0
 40
0
 40
0
 40
1
 40
1
 40
1
 40
1
 10
186.109041
 20
530.898208
 30
0.0
 10
183.384043
 20
563.944255
 30
0.0
 10
171.406375
 20
596.829376
 30
0.0
 10
154.121153
 20
618.722138
 30
0.0
  0
SPLINE
  5
129
100
AcDbEntity
  8
Layer_1
 62
7
100
AcDbSpline
 70
8
 71
3
 72
8
 73
4
 74
0
 40
0
 40
0
 40
0
 40
0
 40
1
 40
1
 40
1
 40
1
 10
154.121153
 20
618.722138
 30
0.0
 10
139.441037
 20
637.315373
 30
0.0
 10
121.953348
 20
648.682812
 30
0.0
 10
103.535388
 20
651.604170
 30
0.0
  0
LWPOLYLINE
  5
12a
100
AcDbEntity
  8
Layer_1
 62
7
100
AcDbPolyline
 90
3
 70
0
 10
270.668347
 20
408.237052
 30
0.0
 10
271.765397
 20
401.387017
 30
0.0
 10
275.284973
 20
399.852255
 30
0.0
  0
SPLINE
  5
12b
100
AcDbEntity
  8
Layer_1
 62
7
100
AcDbSpline
 70
8
 71
3
 72
8
 73
4
 74
0
 40
0
 40
0
 40
0
 40
0
 40
1
 40
1
 40
1
 40
1
 10
104.082599
 20
652.350022
 30
0.0
 10
117.233087
 20
652.596069
 30
0.0
 10
136.575794
 20
641.319905
 30
0.0
 10
150.695240
 20
625.176003
 30
0.0
  0
SPLINE
  5
12c
100
AcDbEntity
  8
Layer_1
 62
7
100
AcDbSpline
 70
8
 71
3
 72
8
 73
4
 74
0
 40
0
 40
0
 40
0
 40
0
 40
1
 40
1
 40
1
 40
1
 10
150.695240
 20
625.176003
 30
0.0
 10
170.380860
 20
602.667867
 30
0.0
 10
184.156733
 20
567.443086
 30
0.0
 10
187.124411
 20
532.026907
 30
0.0
  0
SPLINE
  5
12d
100
AcDbEntity
  8
Layer_1
 62
7
100
AcDbSpline
 70
8
 71
3
 72
8
 73
4
 74
0
 40
0
 40
0
 40
0
 40
0
 40
1
 40
1
 40
1
 40
1
 10
187.124411
 20
532.026907
 30
0.0
 10
187.432758
 20
528.347169
 30
0.0
 10
187.780595
 20
524.599427
 30
0.0
 10
187.897368
 20
523.698633
 30
0.0
  0
SPLINE
  5
12e
100
AcDbEntity
  8
Layer_1
 62
7
100
AcDbSpline
 70
8
 71
3
 72
8
 73
4
 74
0
 40
0
 40
0
 40
0
 40
0
 40
1
 40
1
 40
1
 40
1
 10
187.897368
 20
523.698633
 30
0.0
 10
188.104156
 20
522.103635
 30
0.0
 10
188.300854
 20
522.060633
 30
0.0
 10
195.428290
 20
522.052441
 30
0.0
  0
LWPOLYLINE
  5
12f
100
AcDbEntity
  8
Layer_1
 62
7
100
AcDbPolyline
 90
3
 70
0
 10
103.535388
 20
651.604170
 30
0.0
 10
99.387099
 20
652.262148
 30
0.0
 10
104.082599
 20
652.350022
 30
0.0
  0
SPLINE
  5
130
100
AcDbEntity
  8
Layer_1
 62
7
100
AcDbSpline
 70
8
 71
3
 72
8
 73
4
 74
0
 40
0
 40
0
 40
0
 40
0
 40
1
 40
1
 40
1
 40
1
 10
203.374134
 20
529.690139
 30
0.0
 10
208.205887
 20
588.590649
 30
0.0
 10
237.490699
 20
637.308711
 30
0.0
 10
276.086098
 20
650.653345
 30
0.0
  0
SPLINE
  5
131
100
AcDbEntity
  8
Layer_1
 62
7
100
AcDbSpline
 70
8
 71
3
 72
8
 73
4
 74
0
 40
0
 40
0
 40
0
 40
0
 40
1
 40
1
 40
1
 40
1
 10
276.086098
 20
650.653345
 30
0.0
 10
280.094420
 20
652.039260
 30
0.0
 10
282.569814
 20
652.426217
 30
0.0
 10
286.959883
 20
652.353197
 30
0.0
  0
LWPOLYLINE
  5
132
100
AcDbEntity
  8
Layer_1
 62
7
100
AcDbPolyline
 90
3
 70
0
 10
195.428290
 20
522.052441
 30
0.0
 10
202.746889
 20
522.043937
 30
0.0
 10
203.374134
 20
529.690139
 30
0.0
  0
SPLINE
  5
133
100
AcDbEntity
  8
Layer_1
 62
7
100
AcDbSpline
 70
8
 71
3
 72
8
 73
4
 74
0
 40
0
 40
0
 40
0
 40
0
 40
1
 40
1
 40
1
 40
1
 10
288.195534
 20
651.614686
 30
0.0
 10
271.332842
 20
649.174170
 30
0.0
 10
254.349397
 20
639.138362
 30
0.0
 10
240.798266
 20
623.606800
 30
0.0
  0
SPLINE
  5
134
100
AcDbEntity
  8
Layer_1
 62
7
100
AcDbSpline
 70
8
 71
3
 72
8
 73
4
 74
0
 40
0
 40
0
 40
0
 40
0
 40
1
 40
1
 40
1
 40
1
 10
240.798266
 20
623.606800
 30
0.0
 10
221.219382
 20
601.166582
 30
0.0
 10
207.796720
 20
566.334513
 30
0.0
 10
204.765554
 20
530.101191
 30
0.0
  0
LWPOLYLINE
  5
135
100
AcDbEntity
  8
Layer_1
 62
7
100
AcDbPolyline
 90
3
 70
0
 10
286.959883
 20
652.353197
 30
0.0
 10
292.643915
 20
652.258519
 30
0.0
 10
288.195534
 20
651.614686
 30
0.0
  0
SPLINE
  5
136
100
AcDbEntity
  8
Layer_1
 62
7
100
AcDbSpline
 70
8
 71
3
 72
8
 73
4
 74
0
 40
0
 40
0
 40
0
 40
0
 40
1
 40
1
 40
1
 40
1
 10
206.367582
 20
521.748482
 30
0.0
 10
210.919255
 20
520.560312
 30
0.0
 10
217.052348
 20
518.841241
 30
0.0
 10
218.133763
 20
518.450457
 30
0.0
  0
SPLINE
  5
137
100
AcDbEntity
  8
Layer_1
 62
7
100
AcDbSpline
 70
8
 71
3
 72
8
 73
4
 74
0
 40
0
 40
0
 40
0
 40
0
 40
1
 40
1
 40
1
 40
1
 10
218.133763
 20
518.450457
 30
0.0
 10
219.099336
 20
518.101569
 30
0.0
 10
219.245868
 20
518.345858
 30
0.0
 10
219.245868
 20
520.305392
 30
0.0
  0
SPLINE
  5
138
100
AcDbEntity
  8
Layer_1
 62
7
100
AcDbSpline
 70
8
 71
3
 72
8
 73
4
 74
0
 40
0
 40
0
 40
0
 40
0
 40
1
 40
1
 40
1
 40
1
 10
219.245868
 20
520.305392
 30
0.0
 10
219.245868
 20
525.132369
 30
0.0
 10
221.314674
 20
540.564094
 30
0.0
 10
222.976780
 20
548.135036
 30
0.0
  0
SPLINE
  5
139
100
AcDbEntity
  8
Layer_1
 62
7
100
AcDbSpline
 70
8
 71
3
 72
8
 73
4
 74
0
 40
0
 40
0
 40
0
 40
0
 40
1
 40
1
 40
1
 40
1
 10
222.976780
 20
548.135036
 30
0.0
 10
230.859312
 20
584.040475
 30
0.0
 10
249.013599
 20
611.503628
 30
0.0
 10
272.616026
 20
623.227496
 30
0.0
  0
SPLINE
  5
13a
100
AcDbEntity
  8
Layer_1
 62
7
100
AcDbSpline
 70
8
 71
3
 72
8
 73
4
 74
0
 40
0
 40
0
 40
0
 40
0
 40
1
 40
1
 40
1
 40
1
 10
272.616026
 20
623.227496
 30
0.0
 10
281.260531
 20
627.521417
 30
0.0
 10
286.721603
 20
628.770844
 30
0.0
 10
296.845143
 20
628.770844
 30
0.0
  0
SPLINE
  5
13b
100
AcDbEntity
  8
Layer_1
 62
7
100
AcDbSpline
 70
8
 71
3
 72
8
 73
4
 74
0
 40
0
 40
0
 40
0
 40
0
 40
1
 40
1
 40
1
 40
1
 10
296.845143
 20
628.770844
 30
0.0
 10
306.993997
 20
628.770844
 30
0.0
 10
312.428551
 20
627.522097
 30
0.0
 10
321.163824
 20
623.182878
 30
0.0
  0
SPLINE
  5
13c
100
AcDbEntity
  8
Layer_1
 62
7
100
AcDbSpline
 70
8
 71
3
 72
8
 73
4
 74
0
 40
0
 40
0
 40
0
 40
0
 40
1
 40
1
 40
1
 40
1
 10
321.163824
 20
623.182878
 30
0.0
 10
347.745628
 20
609.978447
 30
0.0
 10
367.018526
 20
577.020447
 30
0.0
 10
373.053940
 20
534.447043
 30
0.0
  0
SPLINE
  5
13d
100
AcDbEntity
  8
Layer_1
 62
7
100
AcDbSpline
 70
8
 71
3
 72
8
 73
4
 74
0
 40
0
 40
0
 40
0
 40
0
 40
1
 40
1
 40
1
 40
1
 10
373.053940
 20
534.447043
 30
0.0
 10
374.502132
 20
524.231631
 30
0.0
 10
374.616539
 20
503.053739
 30
0.0
 10
373.288649
 20
490.979679
 30
0.0
  0
SPLINE
  5
13e
100
AcDbEntity
  8
Layer_1
 62
7
100
AcDbSpline
 70
8
 71
3
 72
8
 73
4
 74
0
 40
0
 40
0
 40
0
 40
0
 40
1
 40
1
 40
1
 40
1
 10
373.288649
 20
490.979679
 30
0.0
 10
369.025512
 20
452.213235
 30
0.0
 10
351.473102
 20
418.267984
 30
0.0
 10
327.796866
 20
403.001461
 30
0.0
  0
SPLINE
  5
13f
100
AcDbEntity
  8
Layer_1
 62
7
100
AcDbSpline
 70
8
 71
3
 72
8
 73
4
 74
0
 40
0
 40
0
 40
0
 40
0
 40
1
 40
1
 40
1
 40
1
 10
327.796866
 20
403.001461
 30
0.0
 10
321.886148
 20
399.190224
 30
0.0
 10
322.161165
 20
399.992797
 30
0.0
 10
321.716863
 20
385.258677
 30
0.0
  0
LWPOLYLINE
  5
140
100
AcDbEntity
  8
Layer_1
 62
7
100
AcDbPolyline
 90
3
 70
0
 10
204.765554
 20
530.101191
 30
0.0
 10
204.115966
 20
522.336217
 30
0.0
 10
206.367582
 20
521.748482
 30
0.0
  0
SPLINE
  5
141
100
AcDbEntity
  8
Layer_1
 62
7
100
AcDbSpline
 70
8
 71
3
 72
8
 73
4
 74
0
 40
0
 40
0
 40
0
 40
0
 40
1
 40
1
 40
1
 40
1
 10
326.548006
 20
377.626082
 30
0.0
 10
354.002060
 20
392.013553
 30
0.0
 10
375.503953
 20
424.414091
 30
0.0
 10
384.828123
 20
465.446494
 30
0.0
  0
SPLINE
  5
142
100
AcDbEntity
  8
Layer_1
 62
7
100
AcDbSpline
 70
8
 71
3
 72
8
 73
4
 74
0
 40
0
 40
0
 40
0
 40
0
 40
1
 40
1
 40
1
 40
1
 10
384.828123
 20
465.446494
 30
0.0
 10
388.442324
 20
481.351323
 30
0.0
 10
390.676649
 20
503.126022
 30
0.0
 10
390.049994
 20
516.336236
 30
0.0
  0
SPLINE
  5
143
100
AcDbEntity
  8
Layer_1
 62
7
100
AcDbSpline
 70
8
 71
3
 72
8
 73
4
 74
0
 40
0
 40
0
 40
0
 40
0
 40
1
 40
1
 40
1
 40
1
 10
390.049994
 20
516.336236
 30
0.0
 10
388.237946
 20
554.536261
 30
0.0
 10
379.359808
 20
585.005842
 30
0.0
 10
362.605181
 20
610.526724
 30
0.0
  0
SPLINE
  5
144
100
AcDbEntity
  8
Layer_1
 62
7
100
AcDbSpline
 70
8
 71
3
 72
8
 73
4
 74
0
 40
0
 40
0
 40
0
 40
0
 40
1
 40
1
 40
1
 40
1
 10
362.605181
 20
610.526724
 30
0.0
 10
347.044876
 20
634.228302
 30
0.0
 10
327.181011
 20
648.469278
 30
0.0
 10
305.247515
 20
651.648050
 30
0.0
  0
LWPOLYLINE
  5
145
100
AcDbEntity
  8
Layer_1
 62
7
100
AcDbPolyline
 90
3
 70
0
 10
321.716863
 20
385.258677
 30
0.0
 10
321.405420
 20
374.931099
 30
0.0
 10
326.548006
 20
377.626082
 30
0.0
  0
SPLINE
  5
146
100
AcDbEntity
  8
Layer_1
 62
7
100
AcDbSpline
 70
8
 71
3
 72
8
 73
4
 74
0
 40
0
 40
0
 40
0
 40
0
 40
1
 40
1
 40
1
 40
1
 10
306.730290
 20
652.352460
 30
0.0
 10
311.136038
 20
652.426444
 30
0.0
 10
313.602321
 20
652.038919
 30
0.0
 10
317.696995
 20
650.629449
 30
0.0
  0
SPLINE
  5
147
100
AcDbEntity
  8
Layer_1
 62
7
100
AcDbSpline
 70
8
 71
3
 72
8
 73
4
 74
0
 40
0
 40
0
 40
0
 40
0
 40
1
 40
1
 40
1
 40
1
 10
317.696995
 20
650.629449
 30
0.0
 10
349.834762
 20
639.566875
 30
0.0
 10
375.903950
 20
603.857795
 30
0.0
 10
386.234419
 20
556.748164
 30
0.0
  0
SPLINE
  5
148
100
AcDbEntity
  8
Layer_1
 62
7
100
AcDbSpline
 70
8
 71
3
 72
8
 73
4
 74
0
 40
0
 40
0
 40
0
 40
0
 40
1
 40
1
 40
1
 40
1
 10
386.234419
 20
556.748164
 30
0.0
 10
388.275619
 20
547.439669
 30
0.0
 10
390.019521
 20
535.512898
 30
0.0
 10
390.553200
 20
527.211468
 30
0.0
  0
LWPOLYLINE
  5
149
100
AcDbEntity
  8
Layer_1
 62
7
100
AcDbPolyline
 90
3
 70
0
 10
305.247515
 20
651.648050
 30
0.0
 10
301.046258
 20
652.256932
 30
0.0
 10
306.730290
 20
652.352460
 30
0.0
  0
SPLINE
  5
14a
100
AcDbEntity
  8
Layer_1
 62
7
100
AcDbSpline
 70
8
 71
3
 72
8
 73
4
 74
0
 40
0
 40
0
 40
0
 40
0
 40
1
 40
1
 40
1
 40
1
 10
406.290189
 20
527.961458
 30
0.0
 10
406.733272
 20
535.589121
 30
0.0
 10
408.763417
 20
549.098646
 30
0.0
 10
410.802094
 20
557.986167
 30
0.0
  0
SPLINE
  5
14b
100
AcDbEntity
  8
Layer_1
 62
7
100
AcDbSpline
 70
8
 71
3
 72
8
 73
4
 74
0
 40
0
 40
0
 40
0
 40
0
 40
1
 40
1
 40
1
 40
1
 10
410.802094
 20
557.986167
 30
0.0
 10
421.574797
 20
604.948765
 30
0.0
 10
447.240728
 20
639.600352
 30
0.0
 10
479.345301
 20
650.526409
 30
0.0
  0
SPLINE
  5
14c
100
AcDbEntity
  8
Layer_1
 62
7
100
AcDbSpline
 70
8
 71
3
 72
8
 73
4
 74
0
 40
0
 40
0
 40
0
 40
0
 40
1
 40
1
 40
1
 40
1
 10
479.345301
 20
650.526409
 30
0.0
 10
483.340224
 20
651.885990
 30
0.0
 10
486.336274
 20
652.437272
 30
0.0
 10
489.419972
 20
652.380126
 30
0.0
  0
LWPOLYLINE
  5
14d
100
AcDbEntity
  8
Layer_1
 62
7
100
AcDbPolyline
 90
5
 70
0
 10
390.553200
 20
527.211468
 30
0.0
 10
390.866598
 20
522.336444
 30
0.0
 10
398.415005
 20
522.336444
 30
0.0
 10
405.963383
 20
522.336444
 30
0.0
 10
406.290189
 20
527.961458
 30
0.0
  0
SPLINE
  5
14e
100
AcDbEntity
  8
Layer_1
 62
7
100
AcDbSpline
 70
8
 71
3
 72
8
 73
4
 74
0
 40
0
 40
0
 40
0
 40
0
 40
1
 40
1
 40
1
 40
1
 10
488.619043
 20
651.332752
 30
0.0
 10
459.839452
 20
645.975782
 30
0.0
 10
434.581965
 20
620.879020
 30
0.0
 10
419.509020
 20
582.662526
 30
0.0
  0
SPLINE
  5
14f
100
AcDbEntity
  8
Layer_1
 62
7
100
AcDbSpline
 70
8
 71
3
 72
8
 73
4
 74
0
 40
0
 40
0
 40
0
 40
0
 40
1
 40
1
 40
1
 40
1
 10
419.509020
 20
582.662526
 30
0.0
 10
413.097676
 20
566.406882
 30
0.0
 10
408.231978
 20
544.001584
 30
0.0
 10
407.237896
 20
526.156980
 30
0.0
  0
LWPOLYLINE
  5
150
100
AcDbEntity
  8
Layer_1
 62
7
100
AcDbPolyline
 90
3
 70
0
 10
489.419972
 20
652.380126
 30
0.0
 10
493.808797
 20
652.298771
 30
0.0
 10
488.619043
 20
651.332752
 30
0.0
  0
SPLINE
  5
151
100
AcDbEntity
  8
Layer_1
 62
7
100
AcDbSpline
 70
8
 71
3
 72
8
 73
4
 74
0
 40
0
 40
0
 40
0
 40
0
 40
1
 40
1
 40
1
 40
1
 10
399.040072
 20
520.547471
 30
0.0
 10
394.703830
 20
520.558809
 30
0.0
 10
391.082627
 20
520.458746
 30
0.0
 10
390.992967
 20
520.322683
 30
0.0
  0
SPLINE
  5
152
100
AcDbEntity
  8
Layer_1
 62
7
100
AcDbSpline
 70
8
 71
3
 72
8
 73
4
 74
0
 40
0
 40
0
 40
0
 40
0
 40
1
 40
1
 40
1
 40
1
 10
390.992967
 20
520.322683
 30
0.0
 10
390.903392
 20
520.186620
 30
0.0
 10
390.757408
 20
514.930479
 30
0.0
 10
390.668882
 20
508.642384
 30
0.0
  0
LWPOLYLINE
  5
153
100
AcDbEntity
  8
Layer_1
 62
7
100
AcDbPolyline
 90
3
 70
0
 10
407.237896
 20
526.156980
 30
0.0
 10
406.924157
 20
520.524794
 30
0.0
 10
399.040072
 20
520.547471
 30
0.0
  0
SPLINE
  5
154
100
AcDbEntity
  8
Layer_1
 62
7
100
AcDbSpline
 70
8
 71
3
 72
8
 73
4
 74
0
 40
0
 40
0
 40
0
 40
0
 40
1
 40
1
 40
1
 40
1
 10
398.416110
 20
497.198154
 30
0.0
 10
402.765619
 20
497.192485
 30
0.0
 10
406.559197
 20
496.939635
 30
0.0
 10
406.846290
 20
496.636696
 30
0.0
  0
SPLINE
  5
155
100
AcDbEntity
  8
Layer_1
 62
7
100
AcDbSpline
 70
8
 71
3
 72
8
 73
4
 74
0
 40
0
 40
0
 40
0
 40
0
 40
1
 40
1
 40
1
 40
1
 10
406.846290
 20
496.636696
 30
0.0
 10
407.133383
 20
496.333644
 30
0.0
 10
407.421213
 20
494.735698
 30
0.0
 10
407.485899
 20
493.085679
 30
0.0
  0
SPLINE
  5
156
100
AcDbEntity
  8
Layer_1
 62
7
100
AcDbSpline
 70
8
 71
3
 72
8
 73
4
 74
0
 40
0
 40
0
 40
0
 40
0
 40
1
 40
1
 40
1
 40
1
 10
407.485899
 20
493.085679
 30
0.0
 10
407.893635
 20
482.686838
 30
0.0
 10
411.625332
 20
463.745565
 30
0.0
 10
415.937679
 20
450.186435
 30
0.0
  0
SPLINE
  5
157
100
AcDbEntity
  8
Layer_1
 62
7
100
AcDbSpline
 70
8
 71
3
 72
8
 73
4
 74
0
 40
0
 40
0
 40
0
 40
0
 40
1
 40
1
 40
1
 40
1
 10
415.937679
 20
450.186435
 30
0.0
 10
426.908806
 20
415.690328
 30
0.0
 10
446.124643
 20
389.836942
 30
0.0
 10
470.131257
 20
377.273197
 30
0.0
  0
LWPOLYLINE
  5
158
100
AcDbEntity
  8
Layer_1
 62
7
100
AcDbPolyline
 90
3
 70
0
 10
390.668882
 20
508.642384
 30
0.0
 10
390.507874
 20
497.209493
 30
0.0
 10
398.416110
 20
497.198154
 30
0.0
  0
SPLINE
  5
159
100
AcDbEntity
  8
Layer_1
 62
7
100
AcDbSpline
 70
8
 71
3
 72
8
 73
4
 74
0
 40
0
 40
0
 40
0
 40
0
 40
1
 40
1
 40
1
 40
1
 10
475.438904
 20
368.519074
 30
0.0
 10
475.393550
 20
365.255717
 30
0.0
 10
474.902277
 20
359.307354
 30
0.0
 10
474.346970
 20
355.300469
 30
0.0
  0
SPLINE
  5
15a
100
AcDbEntity
  8
Layer_1
 62
7
100
AcDbSpline
 70
8
 71
3
 72
8
 73
4
 74
0
 40
0
 40
0
 40
0
 40
0
 40
1
 40
1
 40
1
 40
1
 10
474.346970
 20
355.300469
 30
0.0
 10
468.739644
 20
314.839276
 30
0.0
 10
448.959402
 20
281.070113
 30
0.0
 10
423.290098
 20
268.135257
 30
0.0
  0
SPLINE
  5
15b
100
AcDbEntity
  8
Layer_1
 62
7
100
AcDbSpline
 70
8
 71
3
 72
8
 73
4
 74
0
 40
0
 40
0
 40
0
 40
0
 40
1
 40
1
 40
1
 40
1
 10
423.290098
 20
268.135257
 30
0.0
 10
394.085764
 20
253.419109
 30
0.0
 10
363.118082
 20
265.032624
 30
0.0
 10
342.070157
 20
298.594431
 30
0.0
  0
SPLINE
  5
15c
100
AcDbEntity
  8
Layer_1
 62
7
100
AcDbSpline
 70
8
 71
3
 72
8
 73
4
 74
0
 40
0
 40
0
 40
0
 40
0
 40
1
 40
1
 40
1
 40
1
 10
342.070157
 20
298.594431
 30
0.0
 10
331.636592
 20
315.231222
 30
0.0
 10
325.205093
 20
333.946431
 30
0.0
 10
322.012488
 20
356.960693
 30
0.0
  0
SPLINE
  5
15d
100
AcDbEntity
  8
Layer_1
 62
7
100
AcDbSpline
 70
8
 71
3
 72
8
 73
4
 74
0
 40
0
 40
0
 40
0
 40
0
 40
1
 40
1
 40
1
 40
1
 10
322.012488
 20
356.960693
 30
0.0
 10
319.935628
 20
371.932129
 30
0.0
 10
320.739987
 20
397.567020
 30
0.0
 10
323.783745
 20
413.411187
 30
0.0
  0
SPLINE
  5
15e
100
AcDbEntity
  8
Layer_1
 62
7
100
AcDbSpline
 70
8
 71
3
 72
8
 73
4
 74
0
 40
0
 40
0
 40
0
 40
0
 40
1
 40
1
 40
1
 40
1
 10
323.783745
 20
413.411187
 30
0.0
 10
328.993370
 20
440.529420
 30
0.0
 10
341.559298
 20
465.359187
 30
0.0
 10
357.507638
 20
480.048208
 30
0.0
  0
SPLINE
  5
15f
100
AcDbEntity
  8
Layer_1
 62
7
100
AcDbSpline
 70
8
 71
3
 72
8
 73
4
 74
0
 40
0
 40
0
 40
0
 40
0
 40
1
 40
1
 40
1
 40
1
 10
357.507638
 20
480.048208
 30
0.0
 10
361.857487
 20
484.054554
 30
0.0
 10
368.906740
 20
489.279033
 30
0.0
 10
371.058350
 20
490.091131
 30
0.0
  0
SPLINE
  5
160
100
AcDbEntity
  8
Layer_1
 62
7
100
AcDbSpline
 70
8
 71
3
 72
8
 73
4
 74
0
 40
0
 40
0
 40
0
 40
0
 40
1
 40
1
 40
1
 40
1
 10
371.058350
 20
490.091131
 30
0.0
 10
372.715257
 20
490.716539
 30
0.0
 10
372.885846
 20
491.850454
 30
0.0
 10
373.286154
 20
504.898186
 30
0.0
  0
SPLINE
  5
161
100
AcDbEntity
  8
Layer_1
 62
7
100
AcDbSpline
 70
8
 71
3
 72
8
 73
4
 74
0
 40
0
 40
0
 40
0
 40
0
 40
1
 40
1
 40
1
 40
1
 10
373.286154
 20
504.898186
 30
0.0
 10
373.564517
 20
513.969647
 30
0.0
 10
373.509241
 20
515.210683
 30
0.0
 10
372.827197
 20
515.210683
 30
0.0
  0
SPLINE
  5
162
100
AcDbEntity
  8
Layer_1
 62
7
100
AcDbSpline
 70
8
 71
3
 72
8
 73
4
 74
0
 40
0
 40
0
 40
0
 40
0
 40
1
 40
1
 40
1
 40
1
 10
372.827197
 20
515.210683
 30
0.0
 10
371.448624
 20
515.210683
 30
0.0
 10
363.457332
 20
510.685512
 30
0.0
 10
358.380850
 20
507.030293
 30
0.0
  0
SPLINE
  5
163
100
AcDbEntity
  8
Layer_1
 62
7
100
AcDbSpline
 70
8
 71
3
 72
8
 73
4
 74
0
 40
0
 40
0
 40
0
 40
0
 40
1
 40
1
 40
1
 40
1
 10
358.380850
 20
507.030293
 30
0.0
 10
339.375288
 20
493.345616
 30
0.0
 10
323.539342
 20
469.490060
 30
0.0
 10
314.522164
 20
440.960712
 30
0.0
  0
SPLINE
  5
164
100
AcDbEntity
  8
Layer_1
 62
7
100
AcDbSpline
 70
8
 71
3
 72
8
 73
4
 74
0
 40
0
 40
0
 40
0
 40
0
 40
1
 40
1
 40
1
 40
1
 10
314.522164
 20
440.960712
 30
0.0
 10
311.441046
 20
431.212337
 30
0.0
 10
308.101153
 20
415.897569
 30
0.0
 10
306.998362
 20
406.460693
 30
0.0
  0
SPLINE
  5
165
100
AcDbEntity
  8
Layer_1
 62
7
100
AcDbSpline
 70
8
 71
3
 72
8
 73
4
 74
0
 40
0
 40
0
 40
0
 40
0
 40
1
 40
1
 40
1
 40
1
 10
306.998362
 20
406.460693
 30
0.0
 10
306.540397
 20
402.541937
 30
0.0
 10
305.959124
 20
397.920614
 30
0.0
 10
305.706643
 20
396.191083
 30
0.0
  0
SPLINE
  5
166
100
AcDbEntity
  8
Layer_1
 62
7
100
AcDbSpline
 70
8
 71
3
 72
8
 73
4
 74
0
 40
0
 40
0
 40
0
 40
0
 40
1
 40
1
 40
1
 40
1
 10
305.706643
 20
396.191083
 30
0.0
 10
305.087698
 20
391.951247
 30
0.0
 10
305.125172
 20
374.350337
 30
0.0
 10
305.772406
 20
365.368649
 30
0.0
  0
SPLINE
  5
167
100
AcDbEntity
  8
Layer_1
 62
7
100
AcDbSpline
 70
8
 71
3
 72
8
 73
4
 74
0
 40
0
 40
0
 40
0
 40
0
 40
1
 40
1
 40
1
 40
1
 10
305.772406
 20
365.368649
 30
0.0
 10
310.610211
 20
298.222724
 30
0.0
 10
345.132170
 20
246.104192
 30
0.0
 10
389.272365
 20
239.306967
 30
0.0
  0
LWPOLYLINE
  5
168
100
AcDbEntity
  8
Layer_1
 62
7
100
AcDbPolyline
 90
3
 70
0
 10
470.131257
 20
377.273197
 30
0.0
 10
475.521109
 20
374.452413
 30
0.0
 10
475.438904
 20
368.519074
 30
0.0
  0
SPLINE
  5
169
100
AcDbEntity
  8
Layer_1
 62
7
100
AcDbSpline
 70
8
 71
3
 72
8
 73
4
 74
0
 40
0
 40
0
 40
0
 40
0
 40
1
 40
1
 40
1
 40
1
 10
388.283839
 20
238.567039
 30
0.0
 10
374.045811
 20
238.312205
 30
0.0
 10
353.168050
 20
251.107767
 30
0.0
 10
338.857540
 20
268.859254
 30
0.0
  0
SPLINE
  5
16a
100
AcDbEntity
  8
Layer_1
 62
7
100
AcDbSpline
 70
8
 71
3
 72
8
 73
4
 74
0
 40
0
 40
0
 40
0
 40
0
 40
1
 40
1
 40
1
 40
1
 10
338.857540
 20
268.859254
 30
0.0
 10
320.379676
 20
291.780170
 30
0.0
 10
308.371153
 20
324.129288
 30
0.0
 10
305.006683
 20
360.048302
 30
0.0
  0
SPLINE
  5
16b
100
AcDbEntity
  8
Layer_1
 62
7
100
AcDbSpline
 70
8
 71
3
 72
8
 73
4
 74
0
 40
0
 40
0
 40
0
 40
0
 40
1
 40
1
 40
1
 40
1
 10
305.006683
 20
360.048302
 30
0.0
 10
304.605496
 20
364.331310
 30
0.0
 10
304.273191
 20
368.004331
 30
0.0
 10
304.268202
 20
368.210580
 30
0.0
  0
SPLINE
  5
16c
100
AcDbEntity
  8
Layer_1
 62
7
100
AcDbSpline
 70
8
 71
3
 72
8
 73
4
 74
0
 40
0
 40
0
 40
0
 40
0
 40
1
 40
1
 40
1
 40
1
 10
304.268202
 20
368.210580
 30
0.0
 10
304.262532
 20
368.416942
 30
0.0
 10
300.838989
 20
368.585575
 30
0.0
 10
296.658822
 20
368.585575
 30
0.0
  0
LWPOLYLINE
  5
16d
100
AcDbEntity
  8
Layer_1
 62
7
100
AcDbPolyline
 90
3
 70
0
 10
389.272365
 20
239.306967
 30
0.0
 10
393.473594
 20
238.660016
 30
0.0
 10
388.283839
 20
238.567039
 30
0.0
  0
SPLINE
  5
16e
100
AcDbEntity
  8
Layer_1
 62
7
100
AcDbSpline
 70
8
 71
3
 72
8
 73
4
 74
0
 40
0
 40
0
 40
0
 40
0
 40
1
 40
1
 40
1
 40
1
 10
288.742224
 20
362.960589
 30
0.0
 10
288.288057
 20
354.884003
 30
0.0
 10
286.771323
 20
344.646680
 30
0.0
 10
284.478888
 20
334.184683
 30
0.0
  0
SPLINE
  5
16f
100
AcDbEntity
  8
Layer_1
 62
7
100
AcDbSpline
 70
8
 71
3
 72
8
 73
4
 74
0
 40
0
 40
0
 40
0
 40
0
 40
1
 40
1
 40
1
 40
1
 10
284.478888
 20
334.184683
 30
0.0
 10
273.999172
 20
286.358173
 30
0.0
 10
247.008212
 20
250.073887
 30
0.0
 10
214.413273
 20
239.994595
 30
0.0
  0
SPLINE
  5
170
100
AcDbEntity
  8
Layer_1
 62
7
100
AcDbSpline
 70
8
 71
3
 72
8
 73
4
 74
0
 40
0
 40
0
 40
0
 40
0
 40
1
 40
1
 40
1
 40
1
 10
214.413273
 20
239.994595
 30
0.0
 10
211.684847
 20
239.150891
 30
0.0
 10
207.819303
 20
238.504734
 30
0.0
 10
205.823186
 20
238.558706
 30
0.0
  0
LWPOLYLINE
  5
171
100
AcDbEntity
  8
Layer_1
 62
7
100
AcDbPolyline
 90
3
 70
0
 10
296.658822
 20
368.585575
 30
0.0
 10
289.058513
 20
368.585575
 30
0.0
 10
288.742224
 20
362.960589
 30
0.0
  0
SPLINE
  5
172
100
AcDbEntity
  8
Layer_1
 62
7
100
AcDbSpline
 70
8
 71
3
 72
8
 73
4
 74
0
 40
0
 40
0
 40
0
 40
0
 40
1
 40
1
 40
1
 40
1
 10
208.124943
 20
265.076419
 30
0.0
 10
232.265809
 20
271.440000
 30
0.0
 10
252.722670
 20
294.299943
 30
0.0
 10
263.688491
 20
327.167008
 30
0.0
  0
SPLINE
  5
173
100
AcDbEntity
  8
Layer_1
 62
7
100
AcDbSpline
 70
8
 71
3
 72
8
 73
4
 74
0
 40
0
 40
0
 40
0
 40
0
 40
1
 40
1
 40
1
 40
1
 10
263.688491
 20
327.167008
 30
0.0
 10
267.952289
 20
339.946639
 30
0.0
 10
270.982840
 20
355.586740
 30
0.0
 10
271.787142
 20
368.962696
 30
0.0
  0
LWPOLYLINE
  5
174
100
AcDbEntity
  8
Layer_1
 62
7
100
AcDbPolyline
 90
3
 70
0
 10
205.823186
 20
238.558706
 30
0.0
 10
202.193841
 20
238.656784
 30
0.0
 10
206.147897
 20
239.335313
 30
0.0
  0
SPLINE
  5
175
100
AcDbEntity
  8
Layer_1
 62
7
100
AcDbSpline
 70
8
 71
3
 72
8
 73
4
 74
0
 40
0
 40
0
 40
0
 40
0
 40
1
 40
1
 40
1
 40
1
 10
267.017417
 20
375.533065
 30
0.0
 10
244.020237
 20
386.733572
 30
0.0
 10
223.578060
 20
413.674554
 30
0.0
 10
212.394589
 20
447.521102
 30
0.0
  0
SPLINE
  5
176
100
AcDbEntity
  8
Layer_1
 62
7
100
AcDbSpline
 70
8
 71
3
 72
8
 73
4
 74
0
 40
0
 40
0
 40
0
 40
0
 40
1
 40
1
 40
1
 40
1
 10
212.394589
 20
447.521102
 30
0.0
 10
208.419613
 20
459.551282
 30
0.0
 10
204.962207
 20
476.044838
 30
0.0
 10
203.761536
 20
488.705017
 30
0.0
  0
LWPOLYLINE
  5
177
100
AcDbEntity
  8
Layer_1
 62
7
100
AcDbPolyline
 90
3
 70
0
 10
271.787142
 20
368.962696
 30
0.0
 10
272.035287
 20
373.089175
 30
0.0
 10
267.017417
 20
375.533065
 30
0.0
  0
SPLINE
  5
178
100
AcDbEntity
  8
Layer_1
 62
7
100
AcDbSpline
 70
8
 71
3
 72
8
 73
4
 74
0
 40
0
 40
0
 40
0
 40
0
 40
1
 40
1
 40
1
 40
1
 10
199.203384
 20
495.711184
 30
0.0
 10
197.042275
 20
495.917546
 30
0.0
 10
193.581805
 20
495.977641
 30
0.0
 10
191.513449
 20
495.844980
 30
0.0
  0
LWPOLYLINE
  5
179
100
AcDbEntity
  8
Layer_1
 62
7
100
AcDbPolyline
 90
3
 70
0
 10
203.761536
 20
488.705017
 30
0.0
 10
203.132648
 20
495.336189
 30
0.0
 10
199.203384
 20
495.711184
 30
0.0
  0
SPLINE
  5
17a
100
AcDbEntity
  8
Layer_1
 62
7
100
AcDbSpline
 70
8
 71
3
 72
8
 73
4
 74
0
 40
0
 40
0
 40
0
 40
0
 40
1
 40
1
 40
1
 40
1
 10
186.932415
 20
487.970050
 30
0.0
 10
181.373202
 20
436.239326
 30
0.0
 10
156.469456
 20
391.991357
 30
0.0
 10
123.729551
 20
375.673748
 30
0.0
  0
SPLINE
  5
17b
100
AcDbEntity
  8
Layer_1
 62
7
100
AcDbSpline
 70
8
 71
3
 72
8
 73
4
 74
0
 40
0
 40
0
 40
0
 40
0
 40
1
 40
1
 40
1
 40
1
 10
123.729551
 20
375.673748
 30
0.0
 10
118.937095
 20
373.285191
 30
0.0
 10
118.910486
 20
373.258375
 30
0.0
 10
118.910486
 20
370.816157
 30
0.0
  0
SPLINE
  5
17c
100
AcDbEntity
  8
Layer_1
 62
7
100
AcDbSpline
 70
8
 71
3
 72
8
 73
4
 74
0
 40
0
 40
0
 40
0
 40
0
 40
1
 40
1
 40
1
 40
1
 10
118.910486
 20
370.816157
 30
0.0
 10
118.910486
 20
366.144208
 30
0.0
 10
120.838161
 20
351.308098
 30
0.0
 10
122.365568
 20
344.224517
 30
0.0
  0
SPLINE
  5
17d
100
AcDbEntity
  8
Layer_1
 62
7
100
AcDbSpline
 70
8
 71
3
 72
8
 73
4
 74
0
 40
0
 40
0
 40
0
 40
0
 40
1
 40
1
 40
1
 40
1
 10
122.365568
 20
344.224517
 30
0.0
 10
131.775919
 20
300.582709
 30
0.0
 10
156.817335
 20
269.550482
 30
0.0
 10
187.118770
 20
263.980035
 30
0.0
  0
SPLINE
  5
17e
100
AcDbEntity
  8
Layer_1
 62
7
100
AcDbSpline
 70
8
 71
3
 72
8
 73
4
 74
0
 40
0
 40
0
 40
0
 40
0
 40
1
 40
1
 40
1
 40
1
 10
187.118770
 20
263.980035
 30
0.0
 10
192.055660
 20
263.072466
 30
0.0
 10
202.612836
 20
263.623550
 30
0.0
 10
208.124943
 20
265.076561
 30
0.0
  0
LWPOLYLINE
  5
17f
100
AcDbEntity
  8
Layer_1
 62
7
100
AcDbPolyline
 90
3
 70
0
 10
191.513449
 20
495.844980
 30
0.0
 10
187.752759
 20
495.603751
 30
0.0
 10
186.932415
 20
487.970050
 30
0.0
  0
SPLINE
  5
180
100
AcDbEntity
  8
Layer_1
 62
7
100
AcDbSpline
 70
8
 71
3
 72
8
 73
4
 74
0
 40
0
 40
0
 40
0
 40
0
 40
1
 40
1
 40
1
 40
1
 10
410.284346
 20
265.117805
 30
0.0
 10
434.331836
 20
270.724110
 30
0.0
 10
455.699140
 20
294.553616
 30
0.0
 10
466.746435
 20
328.086113
 30
0.0
  0
SPLINE
  5
181
100
AcDbEntity
  8
Layer_1
 62
7
100
AcDbSpline
 70
8
 71
3
 72
8
 73
4
 74
0
 40
0
 40
0
 40
0
 40
0
 40
1
 40
1
 40
1
 40
1
 10
466.746435
 20
328.086113
 30
0.0
 10
468.105420
 20
332.211118
 30
0.0
 10
469.779987
 20
337.962047
 30
0.0
 10
470.467672
 20
340.865972
 30
0.0
  0
SPLINE
  5
182
100
AcDbEntity
  8
Layer_1
 62
7
100
AcDbSpline
 70
8
 71
3
 72
8
 73
4
 74
0
 40
0
 40
0
 40
0
 40
0
 40
1
 40
1
 40
1
 40
1
 10
470.467672
 20
340.865972
 30
0.0
 10
471.972359
 20
347.219887
 30
0.0
 10
474.094261
 20
361.466816
 30
0.0
 10
474.546671
 20
368.253439
 30
0.0
  0
LWPOLYLINE
  5
183
100
AcDbEntity
  8
Layer_1
 62
7
100
AcDbPolyline
 90
2
 70
0
 10
208.124943
 20
265.076561
 30
0.0
 10
208.124943
 20
265.076419
 30
0.0
  0
SPLINE
  5
184
100
AcDbEntity
  8
Layer_1
 62
7
100
AcDbSpline
 70
8
 71
3
 72
8
 73
4
 74
0
 40
0
 40
0
 40
0
 40
0
 40
1
 40
1
 40
1
 40
1
 10
469.916674
 20
375.634715
 30
0.0
 10
459.371424
 20
380.875521
 30
0.0
 10
447.889663
 20
390.777477
 30
0.0
 10
438.570935
 20
402.667540
 30
0.0
  0
SPLINE
  5
185
100
AcDbEntity
  8
Layer_1
 62
7
100
AcDbSpline
 70
8
 71
3
 72
8
 73
4
 74
0
 40
0
 40
0
 40
0
 40
0
 40
1
 40
1
 40
1
 40
1
 10
438.570935
 20
402.667540
 30
0.0
 10
423.007597
 20
422.525225
 30
0.0
 10
411.115238
 20
453.387628
 30
0.0
 10
407.509257
 20
483.277039
 30
0.0
  0
SPLINE
  5
186
100
AcDbEntity
  8
Layer_1
 62
7
100
AcDbSpline
 70
8
 71
3
 72
8
 73
4
 74
0
 40
0
 40
0
 40
0
 40
0
 40
1
 40
1
 40
1
 40
1
 10
407.509257
 20
483.277039
 30
0.0
 10
406.957918
 20
487.847027
 30
0.0
 10
406.349461
 20
492.429855
 30
0.0
 10
406.157216
 20
493.461099
 30
0.0
  0
LWPOLYLINE
  5
187
100
AcDbEntity
  8
Layer_1
 62
7
100
AcDbPolyline
 90
3
 70
0
 10
474.546671
 20
368.253439
 30
0.0
 10
474.874469
 20
373.170784
 30
0.0
 10
469.916674
 20
375.634715
 30
0.0
  0
SPLINE
  5
188
100
AcDbEntity
  8
Layer_1
 62
7
100
AcDbSpline
 70
8
 71
3
 72
8
 73
4
 74
0
 40
0
 40
0
 40
0
 40
0
 40
1
 40
1
 40
1
 40
1
 10
398.719474
 20
495.544734
 30
0.0
 10
394.311628
 20
495.674561
 30
0.0
 10
391.395969
 20
495.456860
 30
0.0
 10
391.008954
 20
494.969613
 30
0.0
  0
SPLINE
  5
189
100
AcDbEntity
  8
Layer_1
 62
7
100
AcDbSpline
 70
8
 71
3
 72
8
 73
4
 74
0
 40
0
 40
0
 40
0
 40
0
 40
1
 40
1
 40
1
 40
1
 10
391.008954
 20
494.969613
 30
0.0
 10
390.666699
 20
494.538576
 30
0.0
 10
390.232573
 20
492.119490
 30
0.0
 10
390.044268
 20
489.593877
 30
0.0
  0
SPLINE
  5
18a
100
AcDbEntity
  8
Layer_1
 62
7
100
AcDbSpline
 70
8
 71
3
 72
8
 73
4
 74
0
 40
0
 40
0
 40
0
 40
0
 40
1
 40
1
 40
1
 40
1
 10
390.044268
 20
489.593877
 30
0.0
 10
389.561357
 20
483.117080
 30
0.0
 10
387.014797
 20
468.189950
 30
0.0
 10
385.080888
 20
460.500208
 30
0.0
  0
SPLINE
  5
18b
100
AcDbEntity
  8
Layer_1
 62
7
100
AcDbSpline
 70
8
 71
3
 72
8
 73
4
 74
0
 40
0
 40
0
 40
0
 40
0
 40
1
 40
1
 40
1
 40
1
 10
385.080888
 20
460.500208
 30
0.0
 10
375.057978
 20
420.646054
 30
0.0
 10
353.395191
 20
389.083153
 30
0.0
 10
326.808765
 20
375.596957
 30
0.0
  0
LWPOLYLINE
  5
18c
100
AcDbEntity
  8
Layer_1
 62
7
100
AcDbPolyline
 90
3
 70
0
 10
406.157216
 20
493.461099
 30
0.0
 10
405.807591
 20
495.336104
 30
0.0
 10
398.719474
 20
495.544734
 30
0.0
  0
SPLINE
  5
18d
100
AcDbEntity
  8
Layer_1
 62
7
100
AcDbSpline
 70
8
 71
3
 72
8
 73
4
 74
0
 40
0
 40
0
 40
0
 40
0
 40
1
 40
1
 40
1
 40
1
 10
322.198129
 20
367.853357
 30
0.0
 10
323.617606
 20
340.282431
 30
0.0
 10
334.206198
 20
309.700743
 30
0.0
 10
348.643984
 20
291.473235
 30
0.0
  0
SPLINE
  5
18e
100
AcDbEntity
  8
Layer_1
 62
7
100
AcDbSpline
 70
8
 71
3
 72
8
 73
4
 74
0
 40
0
 40
0
 40
0
 40
0
 40
1
 40
1
 40
1
 40
1
 10
348.643984
 20
291.473235
 30
0.0
 10
366.285317
 20
269.201254
 30
0.0
 10
387.991276
 20
259.920510
 30
0.0
 10
410.284431
 20
265.117833
 30
0.0
  0
LWPOLYLINE
  5
18f
100
AcDbEntity
  8
Layer_1
 62
7
100
AcDbPolyline
 90
3
 70
0
 10
326.808765
 20
375.596957
 30
0.0
 10
321.926854
 20
373.120554
 30
0.0
 10
322.198129
 20
367.853357
 30
0.0
  0
SPLINE
  5
190
100
AcDbEntity
  8
Layer_1
 62
7
100
AcDbSpline
 70
8
 71
3
 72
8
 73
4
 74
0
 40
0
 40
0
 40
0
 40
0
 40
1
 40
1
 40
1
 40
1
 10
304.074397
 20
370.753030
 30
0.0
 10
304.108696
 20
370.798668
 30
0.0
 10
304.240507
 20
375.945420
 30
0.0
 10
304.367017
 20
382.190117
 30
0.0
  0
LWPOLYLINE
  5
191
100
AcDbEntity
  8
Layer_1
 62
7
100
AcDbPolyline
 90
1
 70
1
 10
410.284431
 20
265.117833
 30
0.0
  0
SPLINE
  5
192
100
AcDbEntity
  8
Layer_1
 62
7
100
AcDbSpline
 70
8
 71
3
 72
8
 73
4
 74
0
 40
0
 40
0
 40
0
 40
0
 40
1
 40
1
 40
1
 40
1
 10
297.611121
 20
393.569631
 30
0.0
 10
289.470614
 20
393.600529
 30
0.0
 10
284.099159
 20
394.557704
 30
0.0
 10
277.568887
 20
397.141483
 30
0.0
  0
SPLINE
  5
193
100
AcDbEntity
  8
Layer_1
 62
7
100
AcDbSpline
 70
8
 71
3
 72
8
 73
4
 74
0
 40
0
 40
0
 40
0
 40
0
 40
1
 40
1
 40
1
 40
1
 10
277.568887
 20
397.141483
 30
0.0
 10
255.170752
 20
406.004542
 30
0.0
 10
237.391447
 20
427.785902
 30
0.0
 10
227.104676
 20
458.965899
 30
0.0
  0
SPLINE
  5
194
100
AcDbEntity
  8
Layer_1
 62
7
100
AcDbSpline
 70
8
 71
3
 72
8
 73
4
 74
0
 40
0
 40
0
 40
0
 40
0
 40
1
 40
1
 40
1
 40
1
 10
227.104676
 20
458.965899
 30
0.0
 10
224.934415
 20
465.544120
 30
0.0
 10
221.227509
 20
480.804973
 30
0.0
 10
221.220147
 20
483.191717
 30
0.0
  0
SPLINE
  5
195
100
AcDbEntity
  8
Layer_1
 62
7
100
AcDbSpline
 70
8
 71
3
 72
8
 73
4
 74
0
 40
0
 40
0
 40
0
 40
0
 40
1
 40
1
 40
1
 40
1
 10
221.220147
 20
483.191717
 30
0.0
 10
221.218673
 20
483.683669
 30
0.0
 10
220.987678
 20
485.341398
 30
0.0
 10
220.706875
 20
486.875537
 30
0.0
  0
SPLINE
  5
196
100
AcDbEntity
  8
Layer_1
 62
7
100
AcDbSpline
 70
8
 71
3
 72
8
 73
4
 74
0
 40
0
 40
0
 40
0
 40
0
 40
1
 40
1
 40
1
 40
1
 10
220.706875
 20
486.875537
 30
0.0
 10
220.225564
 20
489.505294
 30
0.0
 10
220.006568
 20
489.749329
 30
0.0
 10
216.879103
 20
491.140970
 30
0.0
  0
SPLINE
  5
197
100
AcDbEntity
  8
Layer_1
 62
7
100
AcDbSpline
 70
8
 71
3
 72
8
 73
4
 74
0
 40
0
 40
0
 40
0
 40
0
 40
1
 40
1
 40
1
 40
1
 10
216.879103
 20
491.140970
 30
0.0
 10
213.333208
 20
492.718819
 30
0.0
 10
206.453066
 20
494.961194
 30
0.0
 10
205.157815
 20
494.961194
 30
0.0
  0
SPLINE
  5
198
100
AcDbEntity
  8
Layer_1
 62
7
100
AcDbSpline
 70
8
 71
3
 72
8
 73
4
 74
0
 40
0
 40
0
 40
0
 40
0
 40
1
 40
1
 40
1
 40
1
 10
205.157815
 20
494.961194
 30
0.0
 10
204.266534
 20
494.961194
 30
0.0
 10
204.310471
 20
494.256898
 30
0.0
 10
205.976557
 20
481.836217
 30
0.0
  0
SPLINE
  5
199
100
AcDbEntity
  8
Layer_1
 62
7
100
AcDbSpline
 70
8
 71
3
 72
8
 73
4
 74
0
 40
0
 40
0
 40
0
 40
0
 40
1
 40
1
 40
1
 40
1
 10
205.976557
 20
481.836217
 30
0.0
 10
212.835288
 20
430.703943
 30
0.0
 10
239.707363
 20
387.995329
 30
0.0
 10
273.367650
 20
374.729471
 30
0.0
  0
SPLINE
  5
19a
100
AcDbEntity
  8
Layer_1
 62
7
100
AcDbSpline
 70
8
 71
3
 72
8
 73
4
 74
0
 40
0
 40
0
 40
0
 40
0
 40
1
 40
1
 40
1
 40
1
 10
273.367650
 20
374.729471
 30
0.0
 10
278.044427
 20
372.886299
 30
0.0
 10
286.516120
 20
370.776983
 30
0.0
 10
291.408236
 20
370.237578
 30
0.0
  0
SPLINE
  5
19b
100
AcDbEntity
  8
Layer_1
 62
7
100
AcDbSpline
 70
8
 71
3
 72
8
 73
4
 74
0
 40
0
 40
0
 40
0
 40
0
 40
1
 40
1
 40
1
 40
1
 10
291.408236
 20
370.237578
 30
0.0
 10
293.235364
 20
370.036035
 30
0.0
 10
303.860608
 20
370.468602
 30
0.0
 10
304.074397
 20
370.753115
 30
0.0
  0
LWPOLYLINE
  5
19c
100
AcDbEntity
  8
Layer_1
 62
7
100
AcDbPolyline
 90
3
 70
0
 10
304.367017
 20
382.190117
 30
0.0
 10
304.597191
 20
393.544120
 30
0.0
 10
297.611121
 20
393.569631
 30
0.0
  0
SPLINE
  5
19d
100
AcDbEntity
  8
Layer_1
 62
7
100
AcDbSpline
 70
8
 71
3
 72
8
 73
4
 74
0
 40
0
 40
0
 40
0
 40
0
 40
1
 40
1
 40
1
 40
1
 10
303.580176
 20
395.659587
 30
0.0
 10
304.463112
 20
396.019134
 30
0.0
 10
304.725515
 20
397.006980
 30
0.0
 10
305.221068
 20
401.836847
 30
0.0
  0
SPLINE
  5
19e
100
AcDbEntity
  8
Layer_1
 62
7
100
AcDbSpline
 70
8
 71
3
 72
8
 73
4
 74
0
 40
0
 40
0
 40
0
 40
0
 40
1
 40
1
 40
1
 40
1
 10
305.221068
 20
401.836847
 30
0.0
 10
310.651342
 20
454.762318
 30
0.0
 10
335.607987
 20
499.119137
 30
0.0
 10
369.254665
 20
515.647247
 30
0.0
  0
LWPOLYLINE
  5
19f
100
AcDbEntity
  8
Layer_1
 62
7
100
AcDbPolyline
 90
1
 70
1
 10
304.074397
 20
370.753115
 30
0.0
  0
SPLINE
  5
1a0
100
AcDbEntity
  8
Layer_1
 62
7
100
AcDbSpline
 70
8
 71
3
 72
8
 73
4
 74
0
 40
0
 40
0
 40
0
 40
0
 40
1
 40
1
 40
1
 40
1
 10
372.636822
 20
523.216460
 30
0.0
 10
372.381987
 20
542.487430
 30
0.0
 10
364.706306
 20
569.364948
 30
0.0
 10
354.208309
 20
587.747540
 30
0.0
  0
SPLINE
  5
1a1
100
AcDbEntity
  8
Layer_1
 62
7
100
AcDbSpline
 70
8
 71
3
 72
8
 73
4
 74
0
 40
0
 40
0
 40
0
 40
0
 40
1
 40
1
 40
1
 40
1
 10
354.208309
 20
587.747540
 30
0.0
 10
345.792047
 20
602.484806
 30
0.0
 10
333.224220
 20
615.163949
 30
0.0
 10
320.907175
 20
621.343562
 30
0.0
  0
SPLINE
  5
1a2
100
AcDbEntity
  8
Layer_1
 62
7
100
AcDbSpline
 70
8
 71
3
 72
8
 73
4
 74
0
 40
0
 40
0
 40
0
 40
0
 40
1
 40
1
 40
1
 40
1
 10
320.907175
 20
621.343562
 30
0.0
 10
312.213487
 20
625.705288
 30
0.0
 10
308.320498
 20
626.547178
 30
0.0
 10
296.845087
 20
626.547178
 30
0.0
  0
SPLINE
  5
1a3
100
AcDbEntity
  8
Layer_1
 62
7
100
AcDbSpline
 70
8
 71
3
 72
8
 73
4
 74
0
 40
0
 40
0
 40
0
 40
0
 40
1
 40
1
 40
1
 40
1
 10
296.845087
 20
626.547178
 30
0.0
 10
287.726060
 20
626.547178
 30
0.0
 10
285.539471
 20
626.315587
 30
0.0
 10
281.432611
 20
624.914620
 30
0.0
  0
SPLINE
  5
1a4
100
AcDbEntity
  8
Layer_1
 62
7
100
AcDbSpline
 70
8
 71
3
 72
8
 73
4
 74
0
 40
0
 40
0
 40
0
 40
0
 40
1
 40
1
 40
1
 40
1
 10
281.432611
 20
624.914620
 30
0.0
 10
268.506896
 20
620.505357
 30
0.0
 10
257.482120
 20
612.278535
 30
0.0
 10
247.339902
 20
599.474299
 30
0.0
  0
SPLINE
  5
1a5
100
AcDbEntity
  8
Layer_1
 62
7
100
AcDbSpline
 70
8
 71
3
 72
8
 73
4
 74
0
 40
0
 40
0
 40
0
 40
0
 40
1
 40
1
 40
1
 40
1
 10
247.339902
 20
599.474299
 30
0.0
 10
232.281848
 20
580.463918
 30
0.0
 10
221.880246
 20
549.896797
 30
0.0
 10
220.635916
 20
520.999427
 30
0.0
  0
LWPOLYLINE
  5
1a6
100
AcDbEntity
  8
Layer_1
 62
7
100
AcDbPolyline
 90
3
 70
0
 10
369.254665
 20
515.647247
 30
0.0
 10
372.714491
 20
517.346816
 30
0.0
 10
372.636822
 20
523.216460
 30
0.0
  0
SPLINE
  5
1a7
100
AcDbEntity
  8
Layer_1
 62
7
100
AcDbSpline
 70
8
 71
3
 72
8
 73
4
 74
0
 40
0
 40
0
 40
0
 40
0
 40
1
 40
1
 40
1
 40
1
 10
225.671179
 20
514.790929
 30
0.0
 10
256.424284
 20
499.254746
 30
0.0
 10
280.427363
 20
458.519528
 30
0.0
 10
287.156920
 20
410.444447
 30
0.0
  0
SPLINE
  5
1a8
100
AcDbEntity
  8
Layer_1
 62
7
100
AcDbSpline
 70
8
 71
3
 72
8
 73
4
 74
0
 40
0
 40
0
 40
0
 40
0
 40
1
 40
1
 40
1
 40
1
 10
287.156920
 20
410.444447
 30
0.0
 10
287.838935
 20
405.572372
 30
0.0
 10
288.525742
 20
400.342507
 30
0.0
 10
288.683235
 20
398.822542
 30
0.0
  0
SPLINE
  5
1a9
100
AcDbEntity
  8
Layer_1
 62
7
100
AcDbSpline
 70
8
 71
3
 72
8
 73
4
 74
0
 40
0
 40
0
 40
0
 40
0
 40
1
 40
1
 40
1
 40
1
 10
288.683235
 20
398.822542
 30
0.0
 10
288.898384
 20
396.745115
 30
0.0
 10
289.241603
 20
395.979052
 30
0.0
 10
290.065266
 20
395.737172
 30
0.0
  0
SPLINE
  5
1aa
100
AcDbEntity
  8
Layer_1
 62
7
100
AcDbSpline
 70
8
 71
3
 72
8
 73
4
 74
0
 40
0
 40
0
 40
0
 40
0
 40
1
 40
1
 40
1
 40
1
 10
290.065266
 20
395.737172
 30
0.0
 10
291.759052
 20
395.239776
 30
0.0
 10
302.399150
 20
395.178690
 30
0.0
 10
303.580063
 20
395.659502
 30
0.0
  0
LWPOLYLINE
  5
1ab
100
AcDbEntity
  8
Layer_1
 62
7
100
AcDbPolyline
 90
3
 70
0
 10
220.635916
 20
520.999427
 30
0.0
 10
220.481427
 20
517.412750
 30
0.0
 10
225.671179
 20
514.790929
 30
0.0
  0
SPLINE
  5
1ac
100
AcDbEntity
  8
Layer_1
 62
7
100
AcDbSpline
 70
8
 71
3
 72
8
 73
4
 74
0
 40
0
 40
0
 40
0
 40
0
 40
1
 40
1
 40
1
 40
1
 10
334.953128
 20
410.735707
 30
0.0
 10
352.262835
 20
425.894060
 30
0.0
 10
365.996608
 20
453.051014
 30
0.0
 10
370.720346
 20
481.461109
 30
0.0
  0
SPLINE
  5
1ad
100
AcDbEntity
  8
Layer_1
 62
7
100
AcDbSpline
 70
8
 71
3
 72
8
 73
4
 74
0
 40
0
 40
0
 40
0
 40
0
 40
1
 40
1
 40
1
 40
1
 10
370.720346
 20
481.461109
 30
0.0
 10
371.166180
 20
484.142372
 30
0.0
 10
371.644866
 20
486.924151
 30
0.0
 10
371.784132
 20
487.642847
 30
0.0
  0
SPLINE
  5
1ae
100
AcDbEntity
  8
Layer_1
 62
7
100
AcDbSpline
 70
8
 71
3
 72
8
 73
4
 74
0
 40
0
 40
0
 40
0
 40
0
 40
1
 40
1
 40
1
 40
1
 10
371.784132
 20
487.642847
 30
0.0
 10
372.015723
 20
488.838813
 30
0.0
 10
371.835723
 20
488.819650
 30
0.0
 10
369.657468
 20
487.416643
 30
0.0
  0
SPLINE
  5
1af
100
AcDbEntity
  8
Layer_1
 62
7
100
AcDbSpline
 70
8
 71
3
 72
8
 73
4
 74
0
 40
0
 40
0
 40
0
 40
0
 40
1
 40
1
 40
1
 40
1
 10
369.657468
 20
487.416643
 30
0.0
 10
359.588466
 20
480.930860
 30
0.0
 10
351.324454
 20
472.480186
 30
0.0
 10
343.916306
 20
461.094038
 30
0.0
  0
SPLINE
  5
1b0
100
AcDbEntity
  8
Layer_1
 62
7
100
AcDbSpline
 70
8
 71
3
 72
8
 73
4
 74
0
 40
0
 40
0
 40
0
 40
0
 40
1
 40
1
 40
1
 40
1
 10
343.916306
 20
461.094038
 30
0.0
 10
333.589039
 20
445.221269
 30
0.0
 10
326.921811
 20
426.727049
 30
0.0
 10
323.351291
 20
404.048665
 30
0.0
  0
LWPOLYLINE
  5
1b1
100
AcDbEntity
  8
Layer_1
 62
7
100
AcDbPolyline
 90
2
 70
0
 10
303.580063
 20
395.659502
 30
0.0
 10
303.580176
 20
395.659587
 30
0.0
  0
SPLINE
  5
1b2
100
AcDbEntity
  8
Layer_1
 62
7
100
AcDbSpline
 70
8
 71
3
 72
8
 73
4
 74
0
 40
0
 40
0
 40
0
 40
0
 40
1
 40
1
 40
1
 40
1
 10
326.866337
 20
404.512129
 30
0.0
 10
328.976022
 20
405.887669
 30
0.0
 10
332.615083
 20
408.688271
 30
0.0
 10
334.953128
 20
410.735735
 30
0.0
  0
LWPOLYLINE
  5
1b3
100
AcDbEntity
  8
Layer_1
 62
7
100
AcDbPolyline
 90
3
 70
0
 10
323.351291
 20
404.048665
 30
0.0
 10
323.030523
 20
402.011178
 30
0.0
 10
326.866337
 20
404.512129
 30
0.0
  0
SPLINE
  5
1b4
100
AcDbEntity
  8
Layer_1
 62
7
100
AcDbSpline
 70
8
 71
3
 72
8
 73
4
 74
0
 40
0
 40
0
 40
0
 40
0
 40
1
 40
1
 40
1
 40
1
 10
270.647969
 20
402.898620
 30
0.0
 10
270.647464
 20
403.001802
 30
0.0
 10
270.093858
 20
406.217509
 30
0.0
 10
269.418135
 20
410.044734
 30
0.0
  0
SPLINE
  5
1b5
100
AcDbEntity
  8
Layer_1
 62
7
100
AcDbSpline
 70
8
 71
3
 72
8
 73
4
 74
0
 40
0
 40
0
 40
0
 40
0
 40
1
 40
1
 40
1
 40
1
 10
269.418135
 20
410.044734
 30
0.0
 10
263.314706
 20
444.613946
 30
0.0
 10
245.853907
 20
474.502876
 30
0.0
 10
224.194357
 20
487.457603
 30
0.0
  0
LWPOLYLINE
  5
1b6
100
AcDbEntity
  8
Layer_1
 62
7
100
AcDbPolyline
 90
1
 70
1
 10
334.953128
 20
410.735735
 30
0.0
  0
SPLINE
  5
1b7
100
AcDbEntity
  8
Layer_1
 62
7
100
AcDbSpline
 70
8
 71
3
 72
8
 73
4
 74
0
 40
0
 40
0
 40
0
 40
0
 40
1
 40
1
 40
1
 40
1
 10
222.032837
 20
486.503717
 30
0.0
 10
223.062375
 20
477.791660
 30
0.0
 10
228.338152
 20
458.296724
 30
0.0
 10
232.003641
 20
449.659729
 30
0.0
  0
SPLINE
  5
1b8
100
AcDbEntity
  8
Layer_1
 62
7
100
AcDbSpline
 70
8
 71
3
 72
8
 73
4
 74
0
 40
0
 40
0
 40
0
 40
0
 40
1
 40
1
 40
1
 40
1
 10
232.003641
 20
449.659729
 30
0.0
 10
237.073518
 20
437.713625
 30
0.0
 10
244.768910
 20
425.336173
 30
0.0
 10
252.114350
 20
417.313191
 30
0.0
  0
SPLINE
  5
1b9
100
AcDbEntity
  8
Layer_1
 62
7
100
AcDbSpline
 70
8
 71
3
 72
8
 73
4
 74
0
 40
0
 40
0
 40
0
 40
0
 40
1
 40
1
 40
1
 40
1
 10
252.114350
 20
417.313191
 30
0.0
 10
257.694568
 20
411.218249
 30
0.0
 10
270.659699
 20
401.134592
 30
0.0
 10
270.647969
 20
402.898620
 30
0.0
  0
LWPOLYLINE
  5
1ba
100
AcDbEntity
  8
Layer_1
 62
7
100
AcDbPolyline
 90
3
 70
0
 10
224.194357
 20
487.457603
 30
0.0
 10
221.747134
 20
488.921301
 30
0.0
 10
222.032837
 20
486.503717
 30
0.0
  0
SPLINE
  5
1bb
100
AcDbEntity
  8
Layer_1
 62
7
100
AcDbSpline
 70
8
 71
3
 72
8
 73
4
 74
0
 40
0
 40
0
 40
0
 40
0
 40
1
 40
1
 40
1
 40
1
 10
407.560054
 20
239.313827
 30
0.0
 10
438.767348
 20
244.167137
 30
0.0
 10
466.163915
 20
272.457666
 30
0.0
 10
480.885959
 20
315.032428
 30
0.0
  0
SPLINE
  5
1bc
100
AcDbEntity
  8
Layer_1
 62
7
100
AcDbSpline
 70
8
 71
3
 72
8
 73
4
 74
0
 40
0
 40
0
 40
0
 40
0
 40
1
 40
1
 40
1
 40
1
 10
480.885959
 20
315.032428
 30
0.0
 10
485.708825
 20
328.979679
 30
0.0
 10
488.838586
 20
343.991934
 30
0.0
 10
490.487301
 20
361.086123
 30
0.0
  0
LWPOLYLINE
  5
1bd
100
AcDbEntity
  8
Layer_1
 62
7
100
AcDbPolyline
 90
1
 70
1
 10
270.647969
 20
402.898620
 30
0.0
  0
SPLINE
  5
1be
100
AcDbEntity
  8
Layer_1
 62
7
100
AcDbSpline
 70
8
 71
3
 72
8
 73
4
 74
0
 40
0
 40
0
 40
0
 40
0
 40
1
 40
1
 40
1
 40
1
 10
495.053433
 20
369.847446
 30
0.0
 10
500.435688
 20
369.500088
 30
0.0
 10
512.293011
 20
371.014186
 30
0.0
 10
517.992576
 20
372.776655
 30
0.0
  0
SPLINE
  5
1bf
100
AcDbEntity
  8
Layer_1
 62
7
100
AcDbSpline
 70
8
 71
3
 72
8
 73
4
 74
0
 40
0
 40
0
 40
0
 40
0
 40
1
 40
1
 40
1
 40
1
 10
517.992576
 20
372.776655
 30
0.0
 10
542.770072
 20
380.438561
 30
0.0
 10
564.480227
 20
403.038850
 30
0.0
 10
578.304935
 20
435.561874
 30
0.0
  0
SPLINE
  5
1c0
100
AcDbEntity
  8
Layer_1
 62
7
100
AcDbSpline
 70
8
 71
3
 72
8
 73
4
 74
0
 40
0
 40
0
 40
0
 40
0
 40
1
 40
1
 40
1
 40
1
 10
578.304935
 20
435.561874
 30
0.0
 10
585.530816
 20
452.560847
 30
0.0
 10
590.929370
 20
476.010312
 30
0.0
 10
592.343631
 20
496.541452
 30
0.0
  0
LWPOLYLINE
  5
1c1
100
AcDbEntity
  8
Layer_1
 62
7
100
AcDbPolyline
 90
3
 70
0
 10
490.487301
 20
361.086123
 30
0.0
 10
491.355326
 20
370.086123
 30
0.0
 10
495.053433
 20
369.847446
 30
0.0
  0
SPLINE
  5
1c2
100
AcDbEntity
  8
Layer_1
 62
7
100
AcDbSpline
 70
8
 71
3
 72
8
 73
4
 74
0
 40
0
 40
0
 40
0
 40
0
 40
1
 40
1
 40
1
 40
1
 10
592.843039
 20
495.801411
 30
0.0
 10
593.002346
 20
478.739594
 30
0.0
 10
587.061723
 20
452.837934
 30
0.0
 10
578.373052
 20
432.711128
 30
0.0
  0
SPLINE
  5
1c3
100
AcDbEntity
  8
Layer_1
 62
7
100
AcDbSpline
 70
8
 71
3
 72
8
 73
4
 74
0
 40
0
 40
0
 40
0
 40
0
 40
1
 40
1
 40
1
 40
1
 10
578.373052
 20
432.711128
 30
0.0
 10
564.840312
 20
401.363121
 30
0.0
 10
542.829855
 20
378.781824
 30
0.0
 10
518.501679
 20
371.286879
 30
0.0
  0
SPLINE
  5
1c4
100
AcDbEntity
  8
Layer_1
 62
7
100
AcDbSpline
 70
8
 71
3
 72
8
 73
4
 74
0
 40
0
 40
0
 40
0
 40
0
 40
1
 40
1
 40
1
 40
1
 10
518.501679
 20
371.286879
 30
0.0
 10
512.381594
 20
369.401414
 30
0.0
 10
501.013984
 20
367.928220
 30
0.0
 10
495.990454
 20
368.369490
 30
0.0
  0
LWPOLYLINE
  5
1c5
100
AcDbEntity
  8
Layer_1
 62
7
100
AcDbPolyline
 90
3
 70
0
 10
592.343631
 20
496.541452
 30
0.0
 10
592.777276
 20
502.836094
 30
0.0
 10
592.843039
 20
495.801411
 30
0.0
  0
SPLINE
  5
1c6
100
AcDbEntity
  8
Layer_1
 62
7
100
AcDbSpline
 70
8
 71
3
 72
8
 73
4
 74
0
 40
0
 40
0
 40
0
 40
0
 40
1
 40
1
 40
1
 40
1
 10
491.880813
 20
363.406195
 30
0.0
 10
490.730570
 20
344.626072
 30
0.0
 10
485.082539
 20
320.205231
 30
0.0
 10
477.987902
 20
303.336142
 30
0.0
  0
SPLINE
  5
1c7
100
AcDbEntity
  8
Layer_1
 62
7
100
AcDbSpline
 70
8
 71
3
 72
8
 73
4
 74
0
 40
0
 40
0
 40
0
 40
0
 40
1
 40
1
 40
1
 40
1
 10
477.987902
 20
303.336142
 30
0.0
 10
466.449506
 20
275.901024
 30
0.0
 10
449.036532
 20
255.113631
 30
0.0
 10
428.768617
 20
244.578756
 30
0.0
  0
SPLINE
  5
1c8
100
AcDbEntity
  8
Layer_1
 62
7
100
AcDbSpline
 70
8
 71
3
 72
8
 73
4
 74
0
 40
0
 40
0
 40
0
 40
0
 40
1
 40
1
 40
1
 40
1
 10
428.768617
 20
244.578756
 30
0.0
 10
420.653140
 20
240.360491
 30
0.0
 10
414.090595
 20
238.439820
 30
0.0
 10
408.206494
 20
238.560803
 30
0.0
  0
LWPOLYLINE
  5
1c9
100
AcDbEntity
  8
Layer_1
 62
7
100
AcDbPolyline
 90
3
 70
0
 10
495.990454
 20
368.369490
 30
0.0
 10
492.205181
 20
368.701994
 30
0.0
 10
491.880813
 20
363.406195
 30
0.0
  0
SPLINE
  5
1ca
100
AcDbEntity
  8
Layer_1
 62
7
100
AcDbSpline
 70
8
 71
3
 72
8
 73
4
 74
0
 40
0
 40
0
 40
0
 40
0
 40
1
 40
1
 40
1
 40
1
 10
82.506166
 20
394.551354
 30
0.0
 10
64.520651
 20
398.525216
 30
0.0
 10
46.648332
 20
413.520661
 30
0.0
 10
34.988567
 20
434.420135
 30
0.0
  0
SPLINE
  5
1cb
100
AcDbEntity
  8
Layer_1
 62
7
100
AcDbSpline
 70
8
 71
3
 72
8
 73
4
 74
0
 40
0
 40
0
 40
0
 40
0
 40
1
 40
1
 40
1
 40
1
 10
34.988567
 20
434.420135
 30
0.0
 10
17.037342
 20
466.596709
 30
0.0
 10
11.612375
 20
508.960772
 30
0.0
 10
20.337689
 20
548.830233
 30
0.0
  0
SPLINE
  5
1cc
100
AcDbEntity
  8
Layer_1
 62
7
100
AcDbSpline
 70
8
 71
3
 72
8
 73
4
 74
0
 40
0
 40
0
 40
0
 40
0
 40
1
 40
1
 40
1
 40
1
 10
20.337689
 20
548.830233
 30
0.0
 10
22.449067
 20
558.477952
 30
0.0
 10
26.599071
 20
570.886274
 30
0.0
 10
30.596374
 20
579.503228
 30
0.0
  0
SPLINE
  5
1cd
100
AcDbEntity
  8
Layer_1
 62
7
100
AcDbSpline
 70
8
 71
3
 72
8
 73
4
 74
0
 40
0
 40
0
 40
0
 40
0
 40
1
 40
1
 40
1
 40
1
 10
30.596374
 20
579.503228
 30
0.0
 10
34.511340
 20
587.942705
 30
0.0
 10
43.300446
 20
601.279373
 30
0.0
 10
48.862196
 20
607.219997
 30
0.0
  0
SPLINE
  5
1ce
100
AcDbEntity
  8
Layer_1
 62
7
100
AcDbSpline
 70
8
 71
3
 72
8
 73
4
 74
0
 40
0
 40
0
 40
0
 40
0
 40
1
 40
1
 40
1
 40
1
 10
48.862196
 20
607.219997
 30
0.0
 10
72.660396
 20
632.639313
 30
0.0
 10
103.558989
 20
636.024617
 30
0.0
 10
129.313786
 20
616.034384
 30
0.0
  0
SPLINE
  5
1cf
100
AcDbEntity
  8
Layer_1
 62
7
100
AcDbSpline
 70
8
 71
3
 72
8
 73
4
 74
0
 40
0
 40
0
 40
0
 40
0
 40
1
 40
1
 40
1
 40
1
 10
129.313786
 20
616.034384
 30
0.0
 10
136.865599
 20
610.172875
 30
0.0
 10
142.496050
 20
603.915877
 30
0.0
 10
148.839248
 20
594.336192
 30
0.0
  0
SPLINE
  5
1d0
100
AcDbEntity
  8
Layer_1
 62
7
100
AcDbSpline
 70
8
 71
3
 72
8
 73
4
 74
0
 40
0
 40
0
 40
0
 40
0
 40
1
 40
1
 40
1
 40
1
 10
148.839248
 20
594.336192
 30
0.0
 10
161.479794
 20
575.246072
 30
0.0
 10
169.831919
 20
548.336268
 30
0.0
 10
171.104247
 20
522.600378
 30
0.0
  0
LWPOLYLINE
  5
1d1
100
AcDbEntity
  8
Layer_1
 62
7
100
AcDbPolyline
 90
3
 70
0
 10
408.206494
 20
238.560803
 30
0.0
 10
403.358910
 20
238.660299
 30
0.0
 10
407.560054
 20
239.313827
 30
0.0
  0
SPLINE
  5
1d2
100
AcDbEntity
  8
Layer_1
 62
7
100
AcDbSpline
 70
8
 71
3
 72
8
 73
4
 74
0
 40
0
 40
0
 40
0
 40
0
 40
1
 40
1
 40
1
 40
1
 10
166.291951
 20
513.828680
 30
0.0
 10
146.385689
 20
504.083367
 30
0.0
 10
128.409602
 20
482.885858
 30
0.0
 10
116.709222
 20
455.360457
 30
0.0
  0
SPLINE
  5
1d3
100
AcDbEntity
  8
Layer_1
 62
7
100
AcDbSpline
 70
8
 71
3
 72
8
 73
4
 74
0
 40
0
 40
0
 40
0
 40
0
 40
1
 40
1
 40
1
 40
1
 10
116.709222
 20
455.360457
 30
0.0
 10
111.073136
 20
442.101430
 30
0.0
 10
106.119867
 20
423.298545
 30
0.0
 10
104.123988
 20
407.586217
 30
0.0
  0
SPLINE
  5
1d4
100
AcDbEntity
  8
Layer_1
 62
7
100
AcDbSpline
 70
8
 71
3
 72
8
 73
4
 74
0
 40
0
 40
0
 40
0
 40
0
 40
1
 40
1
 40
1
 40
1
 10
104.123988
 20
407.586217
 30
0.0
 10
103.547602
 20
403.048715
 30
0.0
 10
102.913265
 20
398.154954
 30
0.0
 10
102.714350
 20
396.711213
 30
0.0
  0
LWPOLYLINE
  5
1d5
100
AcDbEntity
  8
Layer_1
 62
7
100
AcDbPolyline
 90
3
 70
0
 10
171.104247
 20
522.600378
 30
0.0
 10
171.413932
 20
516.336180
 30
0.0
 10
166.291951
 20
513.828680
 30
0.0
  0
SPLINE
  5
1d6
100
AcDbEntity
  8
Layer_1
 62
7
100
AcDbSpline
 70
8
 71
3
 72
8
 73
4
 74
0
 40
0
 40
0
 40
0
 40
0
 40
1
 40
1
 40
1
 40
1
 10
93.950209
 20
393.982753
 30
0.0
 10
89.328849
 20
393.925776
 30
0.0
 10
84.179030
 20
394.181745
 30
0.0
 10
82.506166
 20
394.551354
 30
0.0
  0
LWPOLYLINE
  5
1d7
100
AcDbEntity
  8
Layer_1
 62
7
100
AcDbPolyline
 90
3
 70
0
 10
102.714350
 20
396.711213
 30
0.0
 10
102.352677
 20
394.086217
 30
0.0
 10
93.950209
 20
393.982753
 30
0.0
  0
SPLINE
  5
1d8
100
AcDbEntity
  8
Layer_1
 62
7
100
AcDbSpline
 70
8
 71
3
 72
8
 73
4
 74
0
 40
0
 40
0
 40
0
 40
0
 40
1
 40
1
 40
1
 40
1
 10
102.611035
 20
403.086217
 30
0.0
 10
103.849197
 20
414.211323
 30
0.0
 10
105.332817
 20
422.247458
 30
0.0
 10
108.080357
 20
432.711213
 30
0.0
  0
SPLINE
  5
1d9
100
AcDbEntity
  8
Layer_1
 62
7
100
AcDbSpline
 70
8
 71
3
 72
8
 73
4
 74
0
 40
0
 40
0
 40
0
 40
0
 40
1
 40
1
 40
1
 40
1
 10
108.080357
 20
432.711213
 30
0.0
 10
114.866220
 20
458.554507
 30
0.0
 10
126.526470
 20
480.687052
 30
0.0
 10
142.140844
 20
497.362082
 30
0.0
  0
SPLINE
  5
1da
100
AcDbEntity
  8
Layer_1
 62
7
100
AcDbSpline
 70
8
 71
3
 72
8
 73
4
 74
0
 40
0
 40
0
 40
0
 40
0
 40
1
 40
1
 40
1
 40
1
 10
142.140844
 20
497.362082
 30
0.0
 10
148.577457
 20
504.235928
 30
0.0
 10
160.006419
 20
512.739638
 30
0.0
 10
166.698408
 20
515.634151
 30
0.0
  0
SPLINE
  5
1db
100
AcDbEntity
  8
Layer_1
 62
7
100
AcDbSpline
 70
8
 71
3
 72
8
 73
4
 74
0
 40
0
 40
0
 40
0
 40
0
 40
1
 40
1
 40
1
 40
1
 10
166.698408
 20
515.634151
 30
0.0
 10
168.279126
 20
516.317868
 30
0.0
 10
169.768613
 20
517.154457
 30
0.0
 10
170.008393
 20
517.493254
 30
0.0
  0
SPLINE
  5
1dc
100
AcDbEntity
  8
Layer_1
 62
7
100
AcDbSpline
 70
8
 71
3
 72
8
 73
4
 74
0
 40
0
 40
0
 40
0
 40
0
 40
1
 40
1
 40
1
 40
1
 10
170.008393
 20
517.493254
 30
0.0
 10
170.610216
 20
518.343591
 30
0.0
 10
169.483221
 20
531.297921
 30
0.0
 10
168.071505
 20
539.757043
 30
0.0
  0
SPLINE
  5
1dd
100
AcDbEntity
  8
Layer_1
 62
7
100
AcDbSpline
 70
8
 71
3
 72
8
 73
4
 74
0
 40
0
 40
0
 40
0
 40
0
 40
1
 40
1
 40
1
 40
1
 10
168.071505
 20
539.757043
 30
0.0
 10
160.944857
 20
582.460302
 30
0.0
 10
137.553148
 20
616.370403
 30
0.0
 10
109.272359
 20
624.996060
 30
0.0
  0
SPLINE
  5
1de
100
AcDbEntity
  8
Layer_1
 62
7
100
AcDbSpline
 70
8
 71
3
 72
8
 73
4
 74
0
 40
0
 40
0
 40
0
 40
0
 40
1
 40
1
 40
1
 40
1
 10
109.272359
 20
624.996060
 30
0.0
 10
78.777207
 20
634.297099
 30
0.0
 10
47.602860
 20
614.813275
 30
0.0
 10
30.215959
 20
575.586201
 30
0.0
  0
SPLINE
  5
1df
100
AcDbEntity
  8
Layer_1
 62
7
100
AcDbSpline
 70
8
 71
3
 72
8
 73
4
 74
0
 40
0
 40
0
 40
0
 40
0
 40
1
 40
1
 40
1
 40
1
 10
30.215959
 20
575.586201
 30
0.0
 10
23.140467
 20
559.622979
 30
0.0
 10
18.596976
 20
539.515843
 30
0.0
 10
17.610849
 20
519.802498
 30
0.0
  0
SPLINE
  5
1e0
100
AcDbEntity
  8
Layer_1
 62
7
100
AcDbSpline
 70
8
 71
3
 72
8
 73
4
 74
0
 40
0
 40
0
 40
0
 40
0
 40
1
 40
1
 40
1
 40
1
 10
17.610849
 20
519.802498
 30
0.0
 10
16.300119
 20
493.600167
 30
0.0
 10
21.214747
 20
466.374132
 30
0.0
 10
31.182358
 20
444.619049
 30
0.0
  0
SPLINE
  5
1e1
100
AcDbEntity
  8
Layer_1
 62
7
100
AcDbSpline
 70
8
 71
3
 72
8
 73
4
 74
0
 40
0
 40
0
 40
0
 40
0
 40
1
 40
1
 40
1
 40
1
 10
31.182358
 20
444.619049
 30
0.0
 10
35.021350
 20
436.240176
 30
0.0
 10
44.879460
 20
421.457471
 30
0.0
 10
50.460548
 20
415.710482
 30
0.0
  0
SPLINE
  5
1e2
100
AcDbEntity
  8
Layer_1
 62
7
100
AcDbSpline
 70
8
 71
3
 72
8
 73
4
 74
0
 40
0
 40
0
 40
0
 40
0
 40
1
 40
1
 40
1
 40
1
 10
50.460548
 20
415.710482
 30
0.0
 10
59.232648
 20
406.677657
 30
0.0
 10
68.922068
 20
400.427263
 30
0.0
 10
78.729222
 20
397.475093
 30
0.0
  0
SPLINE
  5
1e3
100
AcDbEntity
  8
Layer_1
 62
7
100
AcDbSpline
 70
8
 71
3
 72
8
 73
4
 74
0
 40
0
 40
0
 40
0
 40
0
 40
1
 40
1
 40
1
 40
1
 10
78.729222
 20
397.475093
 30
0.0
 10
85.534220
 20
395.426636
 30
0.0
 10
85.677523
 20
395.408296
 30
0.0
 10
94.156296
 20
395.502009
 30
0.0
  0
LWPOLYLINE
  5
1e4
100
AcDbEntity
  8
Layer_1
 62
7
100
AcDbPolyline
 90
1
 70
1
 10
82.506166
 20
394.551354
 30
0.0
  0
SPLINE
  5
1e5
100
AcDbEntity
  8
Layer_1
 62
7
100
AcDbSpline
 70
8
 71
3
 72
8
 73
4
 74
0
 40
0
 40
0
 40
0
 40
0
 40
1
 40
1
 40
1
 40
1
 10
491.708296
 20
394.484570
 30
0.0
 10
490.930356
 20
394.959061
 30
0.0
 10
490.595046
 20
395.789839
 30
0.0
 10
490.592296
 20
397.249540
 30
0.0
  0
SPLINE
  5
1e6
100
AcDbEntity
  8
Layer_1
 62
7
100
AcDbSpline
 70
8
 71
3
 72
8
 73
4
 74
0
 40
0
 40
0
 40
0
 40
0
 40
1
 40
1
 40
1
 40
1
 10
490.592296
 20
397.249540
 30
0.0
 10
490.590425
 20
398.397203
 30
0.0
 10
490.041780
 20
403.322457
 30
0.0
 10
489.373739
 20
408.194504
 30
0.0
  0
SPLINE
  5
1e7
100
AcDbEntity
  8
Layer_1
 62
7
100
AcDbSpline
 70
8
 71
3
 72
8
 73
4
 74
0
 40
0
 40
0
 40
0
 40
0
 40
1
 40
1
 40
1
 40
1
 10
489.373739
 20
408.194504
 30
0.0
 10
484.007896
 20
447.326561
 30
0.0
 10
468.040592
 20
481.018592
 30
0.0
 10
445.124013
 20
501.564161
 30
0.0
  0
SPLINE
  5
1e8
100
AcDbEntity
  8
Layer_1
 62
7
100
AcDbSpline
 70
8
 71
3
 72
8
 73
4
 74
0
 40
0
 40
0
 40
0
 40
0
 40
1
 40
1
 40
1
 40
1
 10
445.124013
 20
501.564161
 30
0.0
 10
439.915748
 20
506.233587
 30
0.0
 10
431.349165
 20
511.975077
 30
0.0
 10
425.950072
 20
514.414970
 30
0.0
  0
SPLINE
  5
1e9
100
AcDbEntity
  8
Layer_1
 62
7
100
AcDbSpline
 70
8
 71
3
 72
8
 73
4
 74
0
 40
0
 40
0
 40
0
 40
0
 40
1
 40
1
 40
1
 40
1
 10
425.950072
 20
514.414970
 30
0.0
 10
424.012762
 20
515.290450
 30
0.0
 10
422.337543
 20
516.249609
 30
0.0
 10
422.227361
 20
516.546454
 30
0.0
  0
SPLINE
  5
1ea
100
AcDbEntity
  8
Layer_1
 62
7
100
AcDbSpline
 70
8
 71
3
 72
8
 73
4
 74
0
 40
0
 40
0
 40
0
 40
0
 40
1
 40
1
 40
1
 40
1
 10
422.227361
 20
516.546454
 30
0.0
 10
422.117093
 20
516.843326
 30
0.0
 10
422.218857
 20
519.786198
 30
0.0
 10
422.449880
 20
523.086180
 30
0.0
  0
SPLINE
  5
1eb
100
AcDbEntity
  8
Layer_1
 62
7
100
AcDbSpline
 70
8
 71
3
 72
8
 73
4
 74
0
 40
0
 40
0
 40
0
 40
0
 40
1
 40
1
 40
1
 40
1
 10
422.449880
 20
523.086180
 30
0.0
 10
427.375389
 20
592.983782
 30
0.0
 10
470.271685
 20
640.502280
 30
0.0
 10
515.803720
 20
626.499187
 30
0.0
  0
SPLINE
  5
1ec
100
AcDbEntity
  8
Layer_1
 62
7
100
AcDbSpline
 70
8
 71
3
 72
8
 73
4
 74
0
 40
0
 40
0
 40
0
 40
0
 40
1
 40
1
 40
1
 40
1
 10
515.803720
 20
626.499187
 30
0.0
 10
525.225997
 20
623.601414
 30
0.0
 10
536.506696
 20
616.108340
 30
0.0
 10
544.828167
 20
607.219997
 30
0.0
  0
SPLINE
  5
1ed
100
AcDbEntity
  8
Layer_1
 62
7
100
AcDbSpline
 70
8
 71
3
 72
8
 73
4
 74
0
 40
0
 40
0
 40
0
 40
0
 40
1
 40
1
 40
1
 40
1
 10
544.828167
 20
607.219997
 30
0.0
 10
550.389912
 20
601.279373
 30
0.0
 10
559.179043
 20
587.942705
 30
0.0
 10
563.094000
 20
579.503228
 30
0.0
  0
SPLINE
  5
1ee
100
AcDbEntity
  8
Layer_1
 62
7
100
AcDbSpline
 70
8
 71
3
 72
8
 73
4
 74
0
 40
0
 40
0
 40
0
 40
0
 40
1
 40
1
 40
1
 40
1
 10
563.094000
 20
579.503228
 30
0.0
 10
581.617134
 20
539.573074
 30
0.0
 10
582.184602
 20
486.366860
 30
0.0
 10
564.515263
 20
446.243613
 30
0.0
  0
SPLINE
  5
1ef
100
AcDbEntity
  8
Layer_1
 62
7
100
AcDbSpline
 70
8
 71
3
 72
8
 73
4
 74
0
 40
0
 40
0
 40
0
 40
0
 40
1
 40
1
 40
1
 40
1
 10
564.515263
 20
446.243613
 30
0.0
 10
552.423005
 20
418.784854
 30
0.0
 10
534.123184
 20
400.668746
 30
0.0
 10
512.922586
 20
395.169024
 30
0.0
  0
SPLINE
  5
1f0
100
AcDbEntity
  8
Layer_1
 62
7
100
AcDbSpline
 70
8
 71
3
 72
8
 73
4
 74
0
 40
0
 40
0
 40
0
 40
0
 40
1
 40
1
 40
1
 40
1
 10
512.922586
 20
395.169024
 30
0.0
 10
506.927792
 20
393.613880
 30
0.0
 10
493.828838
 20
393.191263
 30
0.0
 10
491.708381
 20
394.484570
 30
0.0
  0
LWPOLYLINE
  5
1f1
100
AcDbEntity
  8
Layer_1
 62
7
100
AcDbPolyline
 90
3
 70
0
 10
94.156296
 20
395.502009
 30
0.0
 10
101.776329
 20
395.586198
 30
0.0
 10
102.611035
 20
403.086217
 30
0.0
  0
SPLINE
  5
1f2
100
AcDbEntity
  8
Layer_1
 62
7
100
AcDbSpline
 70
8
 71
3
 72
8
 73
4
 74
0
 40
0
 40
0
 40
0
 40
0
 40
1
 40
1
 40
1
 40
1
 10
515.195887
 20
397.387644
 30
0.0
 10
530.691619
 20
402.569688
 30
0.0
 10
542.408173
 20
412.296378
 30
0.0
 10
553.648450
 20
429.309666
 30
0.0
  0
SPLINE
  5
1f3
100
AcDbEntity
  8
Layer_1
 62
7
100
AcDbSpline
 70
8
 71
3
 72
8
 73
4
 74
0
 40
0
 40
0
 40
0
 40
0
 40
1
 40
1
 40
1
 40
1
 10
553.648450
 20
429.309666
 30
0.0
 10
560.824498
 20
440.171291
 30
0.0
 10
564.751672
 20
448.389978
 30
0.0
 10
568.675134
 20
460.757112
 30
0.0
  0
SPLINE
  5
1f4
100
AcDbEntity
  8
Layer_1
 62
7
100
AcDbSpline
 70
8
 71
3
 72
8
 73
4
 74
0
 40
0
 40
0
 40
0
 40
0
 40
1
 40
1
 40
1
 40
1
 10
568.675134
 20
460.757112
 30
0.0
 10
585.272324
 20
513.072935
 30
0.0
 10
574.040750
 20
575.543625
 30
0.0
 10
542.246683
 20
607.753845
 30
0.0
  0
SPLINE
  5
1f5
100
AcDbEntity
  8
Layer_1
 62
7
100
AcDbSpline
 70
8
 71
3
 72
8
 73
4
 74
0
 40
0
 40
0
 40
0
 40
0
 40
1
 40
1
 40
1
 40
1
 10
542.246683
 20
607.753845
 30
0.0
 10
519.322535
 20
630.978041
 30
0.0
 10
489.669506
 20
633.737370
 30
0.0
 10
465.388809
 20
614.905741
 30
0.0
  0
SPLINE
  5
1f6
100
AcDbEntity
  8
Layer_1
 62
7
100
AcDbSpline
 70
8
 71
3
 72
8
 73
4
 74
0
 40
0
 40
0
 40
0
 40
0
 40
1
 40
1
 40
1
 40
1
 10
465.388809
 20
614.905741
 30
0.0
 10
449.955128
 20
602.935713
 30
0.0
 10
438.525014
 20
585.369697
 30
0.0
 10
431.019383
 20
562.086201
 30
0.0
  0
SPLINE
  5
1f7
100
AcDbEntity
  8
Layer_1
 62
7
100
AcDbSpline
 70
8
 71
3
 72
8
 73
4
 74
0
 40
0
 40
0
 40
0
 40
0
 40
1
 40
1
 40
1
 40
1
 10
431.019383
 20
562.086201
 30
0.0
 10
426.854806
 20
549.167074
 30
0.0
 10
424.335770
 20
536.049213
 30
0.0
 10
423.590230
 20
523.398954
 30
0.0
  0
LWPOLYLINE
  5
1f8
100
AcDbEntity
  8
Layer_1
 62
7
100
AcDbPolyline
 90
1
 70
1
 10
491.708381
 20
394.484570
 30
0.0
  0
SPLINE
  5
1f9
100
AcDbEntity
  8
Layer_1
 62
7
100
AcDbSpline
 70
8
 71
3
 72
8
 73
4
 74
0
 40
0
 40
0
 40
0
 40
0
 40
1
 40
1
 40
1
 40
1
 10
428.134819
 20
515.281975
 30
0.0
 10
430.818690
 20
513.945638
 30
0.0
 10
435.906028
 20
510.724998
 30
0.0
 10
439.439981
 20
508.125033
 30
0.0
  0
SPLINE
  5
1fa
100
AcDbEntity
  8
Layer_1
 62
7
100
AcDbSpline
 70
8
 71
3
 72
8
 73
4
 74
0
 40
0
 40
0
 40
0
 40
0
 40
1
 40
1
 40
1
 40
1
 10
439.439981
 20
508.125033
 30
0.0
 10
454.082428
 20
497.352501
 30
0.0
 10
465.695093
 20
482.359011
 30
0.0
 10
475.586391
 20
461.455200
 30
0.0
  0
SPLINE
  5
1fb
100
AcDbEntity
  8
Layer_1
 62
7
100
AcDbSpline
 70
8
 71
3
 72
8
 73
4
 74
0
 40
0
 40
0
 40
0
 40
0
 40
1
 40
1
 40
1
 40
1
 10
475.586391
 20
461.455200
 30
0.0
 10
479.765877
 20
452.622529
 30
0.0
 10
485.547364
 20
435.099061
 30
0.0
 10
487.791808
 20
424.461203
 30
0.0
  0
SPLINE
  5
1fc
100
AcDbEntity
  8
Layer_1
 62
7
100
AcDbSpline
 70
8
 71
3
 72
8
 73
4
 74
0
 40
0
 40
0
 40
0
 40
0
 40
1
 40
1
 40
1
 40
1
 10
487.791808
 20
424.461203
 30
0.0
 10
489.668967
 20
415.563931
 30
0.0
 10
491.584734
 20
402.661446
 30
0.0
 10
491.584734
 20
398.915915
 30
0.0
  0
SPLINE
  5
1fd
100
AcDbEntity
  8
Layer_1
 62
7
100
AcDbSpline
 70
8
 71
3
 72
8
 73
4
 74
0
 40
0
 40
0
 40
0
 40
0
 40
1
 40
1
 40
1
 40
1
 10
491.584734
 20
398.915915
 30
0.0
 10
491.584734
 20
397.699172
 30
0.0
 10
491.955647
 20
396.434551
 30
0.0
 10
492.449698
 20
395.966750
 30
0.0
  0
SPLINE
  5
1fe
100
AcDbEntity
  8
Layer_1
 62
7
100
AcDbSpline
 70
8
 71
3
 72
8
 73
4
 74
0
 40
0
 40
0
 40
0
 40
0
 40
1
 40
1
 40
1
 40
1
 10
492.449698
 20
395.966750
 30
0.0
 10
493.910617
 20
394.583499
 30
0.0
 10
509.773861
 20
395.574435
 30
0.0
 10
515.195887
 20
397.387644
 30
0.0
  0
LWPOLYLINE
  5
1ff
100
AcDbEntity
  8
Layer_1
 62
7
100
AcDbPolyline
 90
3
 70
0
 10
423.590230
 20
523.398954
 30
0.0
 10
423.255061
 20
517.711691
 30
0.0
 10
428.134819
 20
515.281975
 30
0.0
  0
SPLINE
  5
200
100
AcDbEntity
  8
Layer_1
 62
7
100
AcDbSpline
 70
8
 71
3
 72
8
 73
4
 74
0
 40
0
 40
0
 40
0
 40
0
 40
1
 40
1
 40
1
 40
1
 10
119.534771
 20
403.617005
 30
0.0
 10
119.684724
 20
405.800079
 30
0.0
 10
120.630906
 20
411.445446
 30
0.0
 10
121.637415
 20
416.162324
 30
0.0
  0
SPLINE
  5
201
100
AcDbEntity
  8
Layer_1
 62
7
100
AcDbSpline
 70
8
 71
3
 72
8
 73
4
 74
0
 40
0
 40
0
 40
0
 40
0
 40
1
 40
1
 40
1
 40
1
 10
121.637415
 20
416.162324
 30
0.0
 10
127.515832
 20
443.710743
 30
0.0
 10
140.388392
 20
467.600825
 30
0.0
 10
157.174004
 20
482.114409
 30
0.0
  0
SPLINE
  5
202
100
AcDbEntity
  8
Layer_1
 62
7
100
AcDbSpline
 70
8
 71
3
 72
8
 73
4
 74
0
 40
0
 40
0
 40
0
 40
0
 40
1
 40
1
 40
1
 40
1
 10
157.174004
 20
482.114409
 30
0.0
 10
161.855742
 20
486.162425
 30
0.0
 10
168.235021
 20
490.461194
 30
0.0
 10
169.560476
 20
490.461194
 30
0.0
  0
SPLINE
  5
203
100
AcDbEntity
  8
Layer_1
 62
7
100
AcDbSpline
 70
8
 71
3
 72
8
 73
4
 74
0
 40
0
 40
0
 40
0
 40
0
 40
1
 40
1
 40
1
 40
1
 10
169.560476
 20
490.461194
 30
0.0
 10
170.521620
 20
490.461194
 30
0.0
 10
170.314421
 20
488.148066
 30
0.0
 10
168.486106
 20
478.467241
 30
0.0
  0
SPLINE
  5
204
100
AcDbEntity
  8
Layer_1
 62
7
100
AcDbSpline
 70
8
 71
3
 72
8
 73
4
 74
0
 40
0
 40
0
 40
0
 40
0
 40
1
 40
1
 40
1
 40
1
 10
168.486106
 20
478.467241
 30
0.0
 10
161.839902
 20
443.275852
 30
0.0
 10
144.523573
 20
414.545187
 30
0.0
 10
121.928321
 20
401.220113
 30
0.0
  0
LWPOLYLINE
  5
205
100
AcDbEntity
  8
Layer_1
 62
7
100
AcDbPolyline
 90
1
 70
1
 10
515.195887
 20
397.387644
 30
0.0
  0
SPLINE
  5
206
100
AcDbEntity
  8
Layer_1
 62
7
100
AcDbSpline
 70
8
 71
3
 72
8
 73
4
 74
0
 40
0
 40
0
 40
0
 40
0
 40
1
 40
1
 40
1
 40
1
 10
126.703851
 20
406.432602
 30
0.0
 10
135.381685
 20
412.821836
 30
0.0
 10
140.928880
 20
418.820995
 30
0.0
 10
147.856748
 20
429.308929
 30
0.0
  0
SPLINE
  5
207
100
AcDbEntity
  8
Layer_1
 62
7
100
AcDbSpline
 70
8
 71
3
 72
8
 73
4
 74
0
 40
0
 40
0
 40
0
 40
0
 40
1
 40
1
 40
1
 40
1
 10
147.856748
 20
429.308929
 30
0.0
 10
155.944783
 20
441.553181
 30
0.0
 10
161.757780
 20
455.094964
 30
0.0
 10
165.634441
 20
470.723329
 30
0.0
  0
SPLINE
  5
208
100
AcDbEntity
  8
Layer_1
 62
7
100
AcDbSpline
 70
8
 71
3
 72
8
 73
4
 74
0
 40
0
 40
0
 40
0
 40
0
 40
1
 40
1
 40
1
 40
1
 10
165.634441
 20
470.723329
 30
0.0
 10
166.820683
 20
475.505518
 30
0.0
 10
168.831043
 20
486.446513
 30
0.0
 10
168.831043
 20
488.120202
 30
0.0
  0
SPLINE
  5
209
100
AcDbEntity
  8
Layer_1
 62
7
100
AcDbSpline
 70
8
 71
3
 72
8
 73
4
 74
0
 40
0
 40
0
 40
0
 40
0
 40
1
 40
1
 40
1
 40
1
 10
168.831043
 20
488.120202
 30
0.0
 10
168.831043
 20
489.153543
 30
0.0
 10
161.592610
 20
484.444687
 30
0.0
 10
157.215864
 20
480.564142
 30
0.0
  0
SPLINE
  5
20a
100
AcDbEntity
  8
Layer_1
 62
7
100
AcDbSpline
 70
8
 71
3
 72
8
 73
4
 74
0
 40
0
 40
0
 40
0
 40
0
 40
1
 40
1
 40
1
 40
1
 10
157.215864
 20
480.564142
 30
0.0
 10
151.214465
 20
475.243115
 30
0.0
 10
145.395935
 20
468.213307
 30
0.0
 10
140.099346
 20
459.884381
 30
0.0
  0
SPLINE
  5
20b
100
AcDbEntity
  8
Layer_1
 62
7
100
AcDbSpline
 70
8
 71
3
 72
8
 73
4
 74
0
 40
0
 40
0
 40
0
 40
0
 40
1
 40
1
 40
1
 40
1
 10
140.099346
 20
459.884381
 30
0.0
 10
130.496905
 20
444.784450
 30
0.0
 10
124.255293
 20
427.524973
 30
0.0
 10
120.711912
 20
406.273720
 30
0.0
  0
SPLINE
  5
20c
100
AcDbEntity
  8
Layer_1
 62
7
100
AcDbSpline
 70
8
 71
3
 72
8
 73
4
 74
0
 40
0
 40
0
 40
0
 40
0
 40
1
 40
1
 40
1
 40
1
 10
120.711912
 20
406.273720
 30
0.0
 10
120.316431
 20
403.901830
 30
0.0
 10
120.138551
 20
401.962791
 30
0.0
 10
120.316629
 20
401.964718
 30
0.0
  0
SPLINE
  5
20d
100
AcDbEntity
  8
Layer_1
 62
7
100
AcDbSpline
 70
8
 71
3
 72
8
 73
4
 74
0
 40
0
 40
0
 40
0
 40
0
 40
1
 40
1
 40
1
 40
1
 10
120.316629
 20
401.964718
 30
0.0
 10
120.494701
 20
401.966957
 30
0.0
 10
123.368956
 20
403.977203
 30
0.0
 10
126.703851
 20
406.432602
 30
0.0
  0
LWPOLYLINE
  5
20e
100
AcDbEntity
  8
Layer_1
 62
7
100
AcDbPolyline
 90
3
 70
0
 10
121.928321
 20
401.220113
 30
0.0
 10
119.262141
 20
399.647792
 30
0.0
 10
119.534771
 20
403.617005
 30
0.0
  0
SPLINE
  5
20f
100
AcDbEntity
  8
Layer_1
 62
7
100
AcDbSpline
 70
8
 71
3
 72
8
 73
4
 74
0
 40
0
 40
0
 40
0
 40
0
 40
1
 40
1
 40
1
 40
1
 10
470.331439
 20
402.251471
 30
0.0
 10
447.453156
 20
416.784728
 30
0.0
 10
430.671742
 20
445.769575
 30
0.0
 10
424.597805
 20
481.242472
 30
0.0
  0
SPLINE
  5
210
100
AcDbEntity
  8
Layer_1
 62
7
100
AcDbSpline
 70
8
 71
3
 72
8
 73
4
 74
0
 40
0
 40
0
 40
0
 40
0
 40
1
 40
1
 40
1
 40
1
 10
424.597805
 20
481.242472
 30
0.0
 10
423.926079
 20
485.165594
 30
0.0
 10
423.376441
 20
488.844709
 30
0.0
 10
423.376441
 20
489.418299
 30
0.0
  0
SPLINE
  5
211
100
AcDbEntity
  8
Layer_1
 62
7
100
AcDbSpline
 70
8
 71
3
 72
8
 73
4
 74
0
 40
0
 40
0
 40
0
 40
0
 40
1
 40
1
 40
1
 40
1
 10
423.376441
 20
489.418299
 30
0.0
 10
423.376441
 20
491.126173
 30
0.0
 10
425.048031
 20
490.629685
 30
0.0
 10
429.777439
 20
487.517102
 30
0.0
  0
SPLINE
  5
212
100
AcDbEntity
  8
Layer_1
 62
7
100
AcDbSpline
 70
8
 71
3
 72
8
 73
4
 74
0
 40
0
 40
0
 40
0
 40
0
 40
1
 40
1
 40
1
 40
1
 10
429.777439
 20
487.517102
 30
0.0
 10
447.719017
 20
475.709102
 30
0.0
 10
463.004617
 20
451.823329
 30
0.0
 10
470.226643
 20
424.309946
 30
0.0
  0
SPLINE
  5
213
100
AcDbEntity
  8
Layer_1
 62
7
100
AcDbSpline
 70
8
 71
3
 72
8
 73
4
 74
0
 40
0
 40
0
 40
0
 40
0
 40
1
 40
1
 40
1
 40
1
 10
470.226643
 20
424.309946
 30
0.0
 10
472.093483
 20
417.197906
 30
0.0
 10
474.775512
 20
403.698472
 30
0.0
 10
474.778545
 20
401.398696
 30
0.0
  0
SPLINE
  5
214
100
AcDbEntity
  8
Layer_1
 62
7
100
AcDbSpline
 70
8
 71
3
 72
8
 73
4
 74
0
 40
0
 40
0
 40
0
 40
0
 40
1
 40
1
 40
1
 40
1
 10
474.778545
 20
401.398696
 30
0.0
 10
474.780416
 20
400.032567
 30
0.0
 10
473.411169
 20
400.295112
 30
0.0
 10
470.331439
 20
402.251471
 30
0.0
  0
LWPOLYLINE
  5
215
100
AcDbEntity
  8
Layer_1
 62
7
100
AcDbPolyline
 90
1
 70
1
 10
126.703851
 20
406.432602
 30
0.0
  0
SPLINE
  5
216
100
AcDbEntity
  8
Layer_1
 62
7
100
AcDbSpline
 70
8
 71
3
 72
8
 73
4
 74
0
 40
0
 40
0
 40
0
 40
0
 40
1
 40
1
 40
1
 40
1
 10
473.046066
 20
405.148706
 30
0.0
 10
472.864932
 20
406.489323
 30
0.0
 10
471.838847
 20
411.620287
 30
0.0
 10
470.766104
 20
416.550813
 30
0.0
  0
SPLINE
  5
217
100
AcDbEntity
  8
Layer_1
 62
7
100
AcDbSpline
 70
8
 71
3
 72
8
 73
4
 74
0
 40
0
 40
0
 40
0
 40
0
 40
1
 40
1
 40
1
 40
1
 10
470.766104
 20
416.550813
 30
0.0
 10
468.505814
 20
426.939109
 30
0.0
 10
464.690750
 20
438.434731
 30
0.0
 10
460.600243
 20
447.182702
 30
0.0
  0
SPLINE
  5
218
100
AcDbEntity
  8
Layer_1
 62
7
100
AcDbSpline
 70
8
 71
3
 72
8
 73
4
 74
0
 40
0
 40
0
 40
0
 40
0
 40
1
 40
1
 40
1
 40
1
 10
460.600243
 20
447.182702
 30
0.0
 10
456.922800
 20
455.047313
 30
0.0
 10
447.997946
 20
468.597345
 30
0.0
 10
442.833165
 20
474.157304
 30
0.0
  0
SPLINE
  5
219
100
AcDbEntity
  8
Layer_1
 62
7
100
AcDbSpline
 70
8
 71
3
 72
8
 73
4
 74
0
 40
0
 40
0
 40
0
 40
0
 40
1
 40
1
 40
1
 40
1
 10
442.833165
 20
474.157304
 30
0.0
 10
438.600983
 20
478.713345
 30
0.0
 10
431.265940
 20
484.839751
 30
0.0
 10
427.033134
 20
487.353883
 30
0.0
  0
LWPOLYLINE
  5
21a
100
AcDbEntity
  8
Layer_1
 62
7
100
AcDbPolyline
 90
1
 70
1
 10
470.331439
 20
402.251471
 30
0.0
  0
SPLINE
  5
21b
100
AcDbEntity
  8
Layer_1
 62
7
100
AcDbSpline
 70
8
 71
3
 72
8
 73
4
 74
0
 40
0
 40
0
 40
0
 40
0
 40
1
 40
1
 40
1
 40
1
 10
425.126239
 20
484.839043
 30
0.0
 10
427.141814
 20
471.682091
 30
0.0
 10
431.765830
 20
455.982435
 30
0.0
 10
436.972224
 20
444.619049
 30
0.0
  0
SPLINE
  5
21c
100
AcDbEntity
  8
Layer_1
 62
7
100
AcDbSpline
 70
8
 71
3
 72
8
 73
4
 74
0
 40
0
 40
0
 40
0
 40
0
 40
1
 40
1
 40
1
 40
1
 10
436.972224
 20
444.619049
 30
0.0
 10
441.065197
 20
435.685805
 30
0.0
 10
450.679606
 20
421.424901
 30
0.0
 10
456.739200
 20
415.298920
 30
0.0
  0
SPLINE
  5
21d
100
AcDbEntity
  8
Layer_1
 62
7
100
AcDbSpline
 70
8
 71
3
 72
8
 73
4
 74
0
 40
0
 40
0
 40
0
 40
0
 40
1
 40
1
 40
1
 40
1
 10
456.739200
 20
415.298920
 30
0.0
 10
461.474391
 20
410.511912
 30
0.0
 10
471.342954
 20
402.744557
 30
0.0
 10
472.718466
 20
402.721994
 30
0.0
  0
SPLINE
  5
21e
100
AcDbEntity
  8
Layer_1
 62
7
100
AcDbSpline
 70
8
 71
3
 72
8
 73
4
 74
0
 40
0
 40
0
 40
0
 40
0
 40
1
 40
1
 40
1
 40
1
 10
472.718466
 20
402.721994
 30
0.0
 10
473.198457
 20
402.713490
 30
0.0
 10
473.286756
 20
403.368151
 30
0.0
 10
473.046066
 20
405.148706
 30
0.0
  0
LWPOLYLINE
  5
21f
100
AcDbEntity
  8
Layer_1
 62
7
100
AcDbPolyline
 90
3
 70
0
 10
427.033134
 20
487.353883
 30
0.0
 10
424.511546
 20
488.851654
 30
0.0
 10
425.126239
 20
484.839043
 30
0.0
  0
SPLINE
  5
220
100
AcDbEntity
  8
Layer_1
 62
7
100
AcDbSpline
 70
8
 71
3
 72
8
 73
4
 74
0
 40
0
 40
0
 40
0
 40
0
 40
1
 40
1
 40
1
 40
1
 10
0.847321
 20
526.316967
 30
0.0
 10
0.727895
 20
539.010907
 30
0.0
 10
3.865056
 20
556.740085
 30
0.0
 10
9.167319
 20
573.336201
 30
0.0
  0
SPLINE
  5
221
100
AcDbEntity
  8
Layer_1
 62
7
100
AcDbSpline
 70
8
 71
3
 72
8
 73
4
 74
0
 40
0
 40
0
 40
0
 40
0
 40
1
 40
1
 40
1
 40
1
 10
9.167319
 20
573.336201
 30
0.0
 10
21.398475
 20
611.619735
 30
0.0
 10
43.539157
 20
638.929845
 30
0.0
 10
71.214111
 20
649.869735
 30
0.0
  0
SPLINE
  5
222
100
AcDbEntity
  8
Layer_1
 62
7
100
AcDbSpline
 70
8
 71
3
 72
8
 73
4
 74
0
 40
0
 40
0
 40
0
 40
0
 40
1
 40
1
 40
1
 40
1
 10
71.214111
 20
649.869735
 30
0.0
 10
74.902003
 20
651.327537
 30
0.0
 10
77.725168
 20
651.892963
 30
0.0
 10
82.335027
 20
652.097058
 30
0.0
  0
SPLINE
  5
223
100
AcDbEntity
  8
Layer_1
 62
7
100
AcDbSpline
 70
8
 71
3
 72
8
 73
4
 74
0
 40
0
 40
0
 40
0
 40
0
 40
1
 40
1
 40
1
 40
1
 10
82.335027
 20
652.097058
 30
0.0
 10
88.379376
 20
652.364649
 30
0.0
 10
88.423384
 20
652.355011
 30
0.0
 10
84.365028
 20
651.658226
 30
0.0
  0
SPLINE
  5
224
100
AcDbEntity
  8
Layer_1
 62
7
100
AcDbSpline
 70
8
 71
3
 72
8
 73
4
 74
0
 40
0
 40
0
 40
0
 40
0
 40
1
 40
1
 40
1
 40
1
 10
84.365028
 20
651.658226
 30
0.0
 10
71.176272
 20
649.393543
 30
0.0
 10
57.157396
 20
642.332554
 30
0.0
 10
46.496415
 20
632.584661
 30
0.0
  0
SPLINE
  5
225
100
AcDbEntity
  8
Layer_1
 62
7
100
AcDbSpline
 70
8
 71
3
 72
8
 73
4
 74
0
 40
0
 40
0
 40
0
 40
0
 40
1
 40
1
 40
1
 40
1
 10
46.496415
 20
632.584661
 30
0.0
 10
21.096602
 20
609.360267
 30
0.0
 10
4.387886
 20
569.779571
 30
0.0
 10
1.346618
 20
525.630841
 30
0.0
  0
LWPOLYLINE
  5
226
100
AcDbEntity
  8
Layer_1
 62
7
100
AcDbPolyline
 90
1
 70
1
 10
473.046066
 20
405.148706
 30
0.0
  0
SPLINE
  5
227
100
AcDbEntity
  8
Layer_1
 62
7
100
AcDbSpline
 70
8
 71
3
 72
8
 73
4
 74
0
 40
0
 40
0
 40
0
 40
0
 40
1
 40
1
 40
1
 40
1
 10
592.273134
 20
526.461250
 30
0.0
 10
591.507468
 20
539.028709
 30
0.0
 10
588.337313
 20
556.633049
 30
0.0
 10
584.507310
 20
569.586249
 30
0.0
  0
SPLINE
  5
228
100
AcDbEntity
  8
Layer_1
 62
7
100
AcDbSpline
 70
8
 71
3
 72
8
 73
4
 74
0
 40
0
 40
0
 40
0
 40
0
 40
1
 40
1
 40
1
 40
1
 10
584.507310
 20
569.586249
 30
0.0
 10
575.778784
 20
599.106390
 30
0.0
 10
558.601540
 20
625.439511
 30
0.0
 10
539.183934
 20
639.068204
 30
0.0
  0
SPLINE
  5
229
100
AcDbEntity
  8
Layer_1
 62
7
100
AcDbSpline
 70
8
 71
3
 72
8
 73
4
 74
0
 40
0
 40
0
 40
0
 40
0
 40
1
 40
1
 40
1
 40
1
 10
539.183934
 20
639.068204
 30
0.0
 10
530.470120
 20
645.184179
 30
0.0
 10
518.754302
 20
650.188746
 30
0.0
 10
509.845776
 20
651.600428
 30
0.0
  0
LWPOLYLINE
  5
22a
100
AcDbEntity
  8
Layer_1
 62
7
100
AcDbPolyline
 90
3
 70
0
 10
1.346618
 20
525.630841
 30
0.0
 10
0.912997
 20
519.336198
 30
0.0
 10
0.847321
 20
526.316967
 30
0.0
  0
SPLINE
  5
22b
100
AcDbEntity
  8
Layer_1
 62
7
100
AcDbSpline
 70
8
 71
3
 72
8
 73
4
 74
0
 40
0
 40
0
 40
0
 40
0
 40
1
 40
1
 40
1
 40
1
 10
510.060076
 20
652.361700
 30
0.0
 10
517.495748
 20
652.530645
 30
0.0
 10
529.868211
 20
647.527666
 30
0.0
 10
540.237657
 20
640.159231
 30
0.0
  0
SPLINE
  5
22c
100
AcDbEntity
  8
Layer_1
 62
7
100
AcDbSpline
 70
8
 71
3
 72
8
 73
4
 74
0
 40
0
 40
0
 40
0
 40
0
 40
1
 40
1
 40
1
 40
1
 10
540.237657
 20
640.159231
 30
0.0
 10
555.928186
 20
629.009719
 30
0.0
 10
570.484913
 20
609.238519
 30
0.0
 10
579.811323
 20
586.409700
 30
0.0
  0
SPLINE
  5
22d
100
AcDbEntity
  8
Layer_1
 62
7
100
AcDbSpline
 70
8
 71
3
 72
8
 73
4
 74
0
 40
0
 40
0
 40
0
 40
0
 40
1
 40
1
 40
1
 40
1
 10
579.811323
 20
586.409700
 30
0.0
 10
587.548715
 20
567.470497
 30
0.0
 10
593.155786
 20
541.562967
 30
0.0
 10
592.806076
 20
526.367480
 30
0.0
  0
LWPOLYLINE
  5
22e
100
AcDbEntity
  8
Layer_1
 62
7
100
AcDbPolyline
 90
3
 70
0
 10
509.845776
 20
651.600428
 30
0.0
 10
505.671222
 20
652.261921
 30
0.0
 10
510.060076
 20
652.361700
 30
0.0
  0
LWPOLYLINE
  5
22f
100
AcDbEntity
  8
Layer_1
 62
7
100
AcDbPolyline
 90
3
 70
0
 10
592.806076
 20
526.367480
 30
0.0
 10
592.661509
 20
520.086359
 30
0.0
 10
592.273134
 20
526.461250
 30
0.0
  0
ENDSEC
  0
SECTION
  2
OBJECTS
  0
DICTIONARY
  5
C
330
0
100
AcDbDictionary
  3
ACAD_GROUP
350
D
  3
ACAD_MLINESTYLE
350
17
  0
DICTIONARY
  5
D
330
C
100
AcDbDictionary
  0
DICTIONARY
  5
1A
330
C
100
AcDbDictionary
  0
DICTIONARY
  5
17
330
C
100
AcDbDictionary
  3
STANDARD
350
18
  0
DICTIONARY
  5
19
330
C
100
AcDbDictionary
  0
ENDSEC
  0
EOF
